<mxfile host="app.diagrams.net" agent="Mozilla/5.0 (Windows NT 10.0; Win64; x64) AppleWebKit/537.36 (KHTML, like Gecko) Chrome/131.0.0.0 Safari/537.36" version="25.0.1">
  <diagram name="第 1 页" id="Ow2czLJxoNJ3fEifRJel">
    <mxGraphModel dx="1674" dy="788" grid="1" gridSize="10" guides="1" tooltips="1" connect="1" arrows="1" fold="1" page="1" pageScale="1" pageWidth="827" pageHeight="1169" math="0" shadow="0">
      <root>
        <mxCell id="0" />
        <mxCell id="1" parent="0" />
        <mxCell id="k3YBJciJK6Rs7I6JHjRl-9" style="edgeStyle=orthogonalEdgeStyle;rounded=0;orthogonalLoop=1;jettySize=auto;html=1;" parent="1" source="k3YBJciJK6Rs7I6JHjRl-1" target="k3YBJciJK6Rs7I6JHjRl-2" edge="1">
          <mxGeometry relative="1" as="geometry" />
        </mxCell>
        <mxCell id="k3YBJciJK6Rs7I6JHjRl-10" style="edgeStyle=orthogonalEdgeStyle;rounded=0;orthogonalLoop=1;jettySize=auto;html=1;" parent="1" source="k3YBJciJK6Rs7I6JHjRl-1" target="k3YBJciJK6Rs7I6JHjRl-7" edge="1">
          <mxGeometry relative="1" as="geometry" />
        </mxCell>
        <mxCell id="k3YBJciJK6Rs7I6JHjRl-1" value="PE" style="rounded=0;whiteSpace=wrap;html=1;" parent="1" vertex="1">
          <mxGeometry x="100" y="180" width="120" height="60" as="geometry" />
        </mxCell>
        <mxCell id="k3YBJciJK6Rs7I6JHjRl-5" style="edgeStyle=orthogonalEdgeStyle;rounded=0;orthogonalLoop=1;jettySize=auto;html=1;exitX=0.5;exitY=1;exitDx=0;exitDy=0;" parent="1" source="k3YBJciJK6Rs7I6JHjRl-2" edge="1">
          <mxGeometry relative="1" as="geometry">
            <mxPoint x="90" y="370" as="targetPoint" />
          </mxGeometry>
        </mxCell>
        <mxCell id="k3YBJciJK6Rs7I6JHjRl-2" value="result latch" style="rounded=0;whiteSpace=wrap;html=1;fillColor=#d5e8d4;strokeColor=#82b366;" parent="1" vertex="1">
          <mxGeometry x="30" y="300" width="120" height="20" as="geometry" />
        </mxCell>
        <mxCell id="k3YBJciJK6Rs7I6JHjRl-11" style="edgeStyle=orthogonalEdgeStyle;rounded=0;orthogonalLoop=1;jettySize=auto;html=1;exitX=1;exitY=0.5;exitDx=0;exitDy=0;entryX=1;entryY=0.5;entryDx=0;entryDy=0;" parent="1" source="k3YBJciJK6Rs7I6JHjRl-7" target="k3YBJciJK6Rs7I6JHjRl-8" edge="1">
          <mxGeometry relative="1" as="geometry" />
        </mxCell>
        <mxCell id="k3YBJciJK6Rs7I6JHjRl-18" style="edgeStyle=orthogonalEdgeStyle;rounded=0;orthogonalLoop=1;jettySize=auto;html=1;exitX=0.5;exitY=1;exitDx=0;exitDy=0;entryX=1;entryY=0.5;entryDx=0;entryDy=0;" parent="1" source="k3YBJciJK6Rs7I6JHjRl-7" target="k3YBJciJK6Rs7I6JHjRl-16" edge="1">
          <mxGeometry relative="1" as="geometry" />
        </mxCell>
        <mxCell id="k3YBJciJK6Rs7I6JHjRl-7" value="latch_full" style="rounded=0;whiteSpace=wrap;html=1;fillColor=#d5e8d4;strokeColor=#82b366;" parent="1" vertex="1">
          <mxGeometry x="180" y="300" width="70" height="20" as="geometry" />
        </mxCell>
        <mxCell id="k3YBJciJK6Rs7I6JHjRl-12" style="edgeStyle=orthogonalEdgeStyle;rounded=0;orthogonalLoop=1;jettySize=auto;html=1;" parent="1" source="k3YBJciJK6Rs7I6JHjRl-8" target="k3YBJciJK6Rs7I6JHjRl-1" edge="1">
          <mxGeometry relative="1" as="geometry" />
        </mxCell>
        <mxCell id="k3YBJciJK6Rs7I6JHjRl-8" value="ss_tdata" style="rounded=0;whiteSpace=wrap;html=1;" parent="1" vertex="1">
          <mxGeometry x="100" y="100" width="120" height="20" as="geometry" />
        </mxCell>
        <mxCell id="k3YBJciJK6Rs7I6JHjRl-15" value="&lt;h1 style=&quot;margin-top: 0px;&quot;&gt;full - ss_tready&lt;/h1&gt;&lt;p&gt;ss_tready = !latch_full&lt;/p&gt;&lt;p&gt;pe result latch , latch full &amp;lt;= 1&lt;/p&gt;&lt;p&gt;sm_tvalid &amp;amp;sm_tready &amp;amp; latch_full , latch full &amp;lt;= 0&lt;/p&gt;" style="text;html=1;whiteSpace=wrap;overflow=hidden;rounded=0;" parent="1" vertex="1">
          <mxGeometry x="290" y="160" width="300" height="140" as="geometry" />
        </mxCell>
        <mxCell id="k3YBJciJK6Rs7I6JHjRl-16" value="sm_tdata" style="rounded=0;whiteSpace=wrap;html=1;" parent="1" vertex="1">
          <mxGeometry x="30" y="370" width="120" height="20" as="geometry" />
        </mxCell>
        <mxCell id="k3YBJciJK6Rs7I6JHjRl-21" value="&lt;font color=&quot;#ff0000&quot; style=&quot;font-size: 14px;&quot;&gt;next ss_tdata need to wait current sm_tvalid&lt;/font&gt;" style="rounded=1;whiteSpace=wrap;html=1;fillColor=#f8cecc;strokeColor=#b85450;" parent="1" vertex="1">
          <mxGeometry x="290" y="380" width="350" height="40" as="geometry" />
        </mxCell>
        <mxCell id="k3YBJciJK6Rs7I6JHjRl-22" value="" style="shape=flexArrow;endArrow=classic;html=1;rounded=0;fillColor=#f8cecc;strokeColor=#b85450;" parent="1" edge="1">
          <mxGeometry width="50" height="50" relative="1" as="geometry">
            <mxPoint x="430" y="310" as="sourcePoint" />
            <mxPoint x="430" y="360" as="targetPoint" />
          </mxGeometry>
        </mxCell>
        <mxCell id="k3YBJciJK6Rs7I6JHjRl-29" style="edgeStyle=orthogonalEdgeStyle;rounded=0;orthogonalLoop=1;jettySize=auto;html=1;exitX=0.5;exitY=1;exitDx=0;exitDy=0;" parent="1" source="k3YBJciJK6Rs7I6JHjRl-25" target="k3YBJciJK6Rs7I6JHjRl-28" edge="1">
          <mxGeometry relative="1" as="geometry" />
        </mxCell>
        <mxCell id="k3YBJciJK6Rs7I6JHjRl-25" value="PE" style="rounded=0;whiteSpace=wrap;html=1;" parent="1" vertex="1">
          <mxGeometry x="100" y="660" width="120" height="60" as="geometry" />
        </mxCell>
        <mxCell id="k3YBJciJK6Rs7I6JHjRl-26" style="edgeStyle=orthogonalEdgeStyle;rounded=0;orthogonalLoop=1;jettySize=auto;html=1;" parent="1" source="k3YBJciJK6Rs7I6JHjRl-27" target="k3YBJciJK6Rs7I6JHjRl-25" edge="1">
          <mxGeometry relative="1" as="geometry" />
        </mxCell>
        <mxCell id="k3YBJciJK6Rs7I6JHjRl-27" value="ss_tdata" style="rounded=0;whiteSpace=wrap;html=1;" parent="1" vertex="1">
          <mxGeometry x="100" y="580" width="120" height="20" as="geometry" />
        </mxCell>
        <mxCell id="k3YBJciJK6Rs7I6JHjRl-30" style="edgeStyle=orthogonalEdgeStyle;rounded=0;orthogonalLoop=1;jettySize=auto;html=1;exitX=1;exitY=0.5;exitDx=0;exitDy=0;entryX=1;entryY=0.5;entryDx=0;entryDy=0;" parent="1" source="k3YBJciJK6Rs7I6JHjRl-28" target="k3YBJciJK6Rs7I6JHjRl-27" edge="1">
          <mxGeometry relative="1" as="geometry">
            <Array as="points">
              <mxPoint x="280" y="810" />
              <mxPoint x="280" y="590" />
            </Array>
          </mxGeometry>
        </mxCell>
        <mxCell id="k3YBJciJK6Rs7I6JHjRl-32" style="edgeStyle=orthogonalEdgeStyle;rounded=0;orthogonalLoop=1;jettySize=auto;html=1;" parent="1" source="k3YBJciJK6Rs7I6JHjRl-28" target="k3YBJciJK6Rs7I6JHjRl-31" edge="1">
          <mxGeometry relative="1" as="geometry" />
        </mxCell>
        <mxCell id="k3YBJciJK6Rs7I6JHjRl-28" value="fifo : 2 depth" style="rounded=0;whiteSpace=wrap;html=1;fillColor=#d5e8d4;strokeColor=#82b366;" parent="1" vertex="1">
          <mxGeometry x="100" y="780" width="120" height="60" as="geometry" />
        </mxCell>
        <mxCell id="k3YBJciJK6Rs7I6JHjRl-31" value="sm_tdata" style="rounded=0;whiteSpace=wrap;html=1;" parent="1" vertex="1">
          <mxGeometry x="100" y="870" width="120" height="20" as="geometry" />
        </mxCell>
        <mxCell id="k3YBJciJK6Rs7I6JHjRl-34" value="&lt;h1 style=&quot;margin-top: 0px;&quot;&gt;full - ss_tready&lt;/h1&gt;&lt;p&gt;have 2 depth fifo can pass next ss_tdata ready before current sm_tdata valid.&lt;/p&gt;" style="text;html=1;whiteSpace=wrap;overflow=hidden;rounded=0;" parent="1" vertex="1">
          <mxGeometry x="306.25" y="580" width="300" height="140" as="geometry" />
        </mxCell>
        <mxCell id="k3YBJciJK6Rs7I6JHjRl-36" value="" style="shape=flexArrow;endArrow=classic;html=1;rounded=0;width=20;endSize=13.67;fillColor=#dae8fc;strokeColor=#6c8ebf;endWidth=38;" parent="1" edge="1">
          <mxGeometry width="50" height="50" relative="1" as="geometry">
            <mxPoint x="290" y="450" as="sourcePoint" />
            <mxPoint x="290" y="550" as="targetPoint" />
          </mxGeometry>
        </mxCell>
        <mxCell id="k3YBJciJK6Rs7I6JHjRl-41" value="" style="shape=flexArrow;endArrow=classic;html=1;rounded=0;fillColor=#dae8fc;strokeColor=#6c8ebf;" parent="1" edge="1">
          <mxGeometry width="50" height="50" relative="1" as="geometry">
            <mxPoint x="360" y="1083.5" as="sourcePoint" />
            <mxPoint x="430" y="1083.5" as="targetPoint" />
          </mxGeometry>
        </mxCell>
        <mxCell id="k3YBJciJK6Rs7I6JHjRl-42" value="So, it can do that, change the next x input before the current y output." style="rounded=1;whiteSpace=wrap;html=1;fillColor=#d5e8d4;strokeColor=#82b366;" parent="1" vertex="1">
          <mxGeometry x="40" y="940" width="420" height="50" as="geometry" />
        </mxCell>
        <mxCell id="k3YBJciJK6Rs7I6JHjRl-43" value="&lt;font style=&quot;font-size: 16px;&quot;&gt;Why it can reduce cycle ?&amp;nbsp;&lt;/font&gt;" style="rounded=1;whiteSpace=wrap;html=1;fillColor=#f8cecc;strokeColor=#b85450;" parent="1" vertex="1">
          <mxGeometry x="36.25" y="1480" width="220" height="50" as="geometry" />
        </mxCell>
        <mxCell id="k3YBJciJK6Rs7I6JHjRl-45" value="" style="shape=table;startSize=0;container=1;collapsible=0;childLayout=tableLayout;" parent="1" vertex="1">
          <mxGeometry x="36.25" y="1554" width="570" height="70" as="geometry" />
        </mxCell>
        <mxCell id="k3YBJciJK6Rs7I6JHjRl-46" value="" style="shape=tableRow;horizontal=0;startSize=0;swimlaneHead=0;swimlaneBody=0;strokeColor=inherit;top=0;left=0;bottom=0;right=0;collapsible=0;dropTarget=0;fillColor=none;points=[[0,0.5],[1,0.5]];portConstraint=eastwest;" parent="k3YBJciJK6Rs7I6JHjRl-45" vertex="1">
          <mxGeometry width="570" height="35" as="geometry" />
        </mxCell>
        <mxCell id="k3YBJciJK6Rs7I6JHjRl-47" value="ss_tready" style="shape=partialRectangle;html=1;whiteSpace=wrap;connectable=0;strokeColor=inherit;overflow=hidden;fillColor=none;top=0;left=0;bottom=0;right=0;pointerEvents=1;" parent="k3YBJciJK6Rs7I6JHjRl-46" vertex="1">
          <mxGeometry width="95" height="35" as="geometry">
            <mxRectangle width="95" height="35" as="alternateBounds" />
          </mxGeometry>
        </mxCell>
        <mxCell id="k3YBJciJK6Rs7I6JHjRl-48" value="1" style="shape=partialRectangle;html=1;whiteSpace=wrap;connectable=0;strokeColor=inherit;overflow=hidden;fillColor=none;top=0;left=0;bottom=0;right=0;pointerEvents=1;" parent="k3YBJciJK6Rs7I6JHjRl-46" vertex="1">
          <mxGeometry x="95" width="95" height="35" as="geometry">
            <mxRectangle width="95" height="35" as="alternateBounds" />
          </mxGeometry>
        </mxCell>
        <mxCell id="k3YBJciJK6Rs7I6JHjRl-49" value="..." style="shape=partialRectangle;html=1;whiteSpace=wrap;connectable=0;strokeColor=inherit;overflow=hidden;fillColor=none;top=0;left=0;bottom=0;right=0;pointerEvents=1;" parent="k3YBJciJK6Rs7I6JHjRl-46" vertex="1">
          <mxGeometry x="190" width="95" height="35" as="geometry">
            <mxRectangle width="95" height="35" as="alternateBounds" />
          </mxGeometry>
        </mxCell>
        <mxCell id="k3YBJciJK6Rs7I6JHjRl-50" value="0" style="shape=partialRectangle;html=1;whiteSpace=wrap;connectable=0;strokeColor=inherit;overflow=hidden;fillColor=none;top=0;left=0;bottom=0;right=0;pointerEvents=1;" parent="k3YBJciJK6Rs7I6JHjRl-46" vertex="1">
          <mxGeometry x="285" width="95" height="35" as="geometry">
            <mxRectangle width="95" height="35" as="alternateBounds" />
          </mxGeometry>
        </mxCell>
        <mxCell id="k3YBJciJK6Rs7I6JHjRl-58" value="0" style="shape=partialRectangle;html=1;whiteSpace=wrap;connectable=0;strokeColor=inherit;overflow=hidden;fillColor=none;top=0;left=0;bottom=0;right=0;pointerEvents=1;" parent="k3YBJciJK6Rs7I6JHjRl-46" vertex="1">
          <mxGeometry x="380" width="95" height="35" as="geometry">
            <mxRectangle width="95" height="35" as="alternateBounds" />
          </mxGeometry>
        </mxCell>
        <mxCell id="k3YBJciJK6Rs7I6JHjRl-56" value="1" style="shape=partialRectangle;html=1;whiteSpace=wrap;connectable=0;strokeColor=#b85450;overflow=hidden;fillColor=#f8cecc;top=0;left=0;bottom=0;right=0;pointerEvents=1;" parent="k3YBJciJK6Rs7I6JHjRl-46" vertex="1">
          <mxGeometry x="475" width="95" height="35" as="geometry">
            <mxRectangle width="95" height="35" as="alternateBounds" />
          </mxGeometry>
        </mxCell>
        <mxCell id="k3YBJciJK6Rs7I6JHjRl-51" value="" style="shape=tableRow;horizontal=0;startSize=0;swimlaneHead=0;swimlaneBody=0;strokeColor=inherit;top=0;left=0;bottom=0;right=0;collapsible=0;dropTarget=0;fillColor=none;points=[[0,0.5],[1,0.5]];portConstraint=eastwest;" parent="k3YBJciJK6Rs7I6JHjRl-45" vertex="1">
          <mxGeometry y="35" width="570" height="35" as="geometry" />
        </mxCell>
        <mxCell id="k3YBJciJK6Rs7I6JHjRl-52" value="sm_tvalid" style="shape=partialRectangle;html=1;whiteSpace=wrap;connectable=0;strokeColor=inherit;overflow=hidden;fillColor=none;top=0;left=0;bottom=0;right=0;pointerEvents=1;" parent="k3YBJciJK6Rs7I6JHjRl-51" vertex="1">
          <mxGeometry width="95" height="35" as="geometry">
            <mxRectangle width="95" height="35" as="alternateBounds" />
          </mxGeometry>
        </mxCell>
        <mxCell id="k3YBJciJK6Rs7I6JHjRl-53" value="0" style="shape=partialRectangle;html=1;whiteSpace=wrap;connectable=0;strokeColor=inherit;overflow=hidden;fillColor=none;top=0;left=0;bottom=0;right=0;pointerEvents=1;" parent="k3YBJciJK6Rs7I6JHjRl-51" vertex="1">
          <mxGeometry x="95" width="95" height="35" as="geometry">
            <mxRectangle width="95" height="35" as="alternateBounds" />
          </mxGeometry>
        </mxCell>
        <mxCell id="k3YBJciJK6Rs7I6JHjRl-54" value="..." style="shape=partialRectangle;html=1;whiteSpace=wrap;connectable=0;strokeColor=inherit;overflow=hidden;fillColor=none;top=0;left=0;bottom=0;right=0;pointerEvents=1;" parent="k3YBJciJK6Rs7I6JHjRl-51" vertex="1">
          <mxGeometry x="190" width="95" height="35" as="geometry">
            <mxRectangle width="95" height="35" as="alternateBounds" />
          </mxGeometry>
        </mxCell>
        <mxCell id="k3YBJciJK6Rs7I6JHjRl-55" value="1" style="shape=partialRectangle;html=1;whiteSpace=wrap;connectable=0;strokeColor=#b85450;overflow=hidden;fillColor=#f8cecc;top=0;left=0;bottom=0;right=0;pointerEvents=1;" parent="k3YBJciJK6Rs7I6JHjRl-51" vertex="1">
          <mxGeometry x="285" width="95" height="35" as="geometry">
            <mxRectangle width="95" height="35" as="alternateBounds" />
          </mxGeometry>
        </mxCell>
        <mxCell id="k3YBJciJK6Rs7I6JHjRl-59" value="0" style="shape=partialRectangle;html=1;whiteSpace=wrap;connectable=0;strokeColor=inherit;overflow=hidden;fillColor=none;top=0;left=0;bottom=0;right=0;pointerEvents=1;" parent="k3YBJciJK6Rs7I6JHjRl-51" vertex="1">
          <mxGeometry x="380" width="95" height="35" as="geometry">
            <mxRectangle width="95" height="35" as="alternateBounds" />
          </mxGeometry>
        </mxCell>
        <mxCell id="k3YBJciJK6Rs7I6JHjRl-57" value="0" style="shape=partialRectangle;html=1;whiteSpace=wrap;connectable=0;strokeColor=inherit;overflow=hidden;fillColor=none;top=0;left=0;bottom=0;right=0;pointerEvents=1;" parent="k3YBJciJK6Rs7I6JHjRl-51" vertex="1">
          <mxGeometry x="475" width="95" height="35" as="geometry">
            <mxRectangle width="95" height="35" as="alternateBounds" />
          </mxGeometry>
        </mxCell>
        <mxCell id="k3YBJciJK6Rs7I6JHjRl-61" value="" style="endArrow=classic;html=1;rounded=0;exitX=0.877;exitY=0.571;exitDx=0;exitDy=0;exitPerimeter=0;entryX=0.649;entryY=0.429;entryDx=0;entryDy=0;entryPerimeter=0;fillColor=#f8cecc;strokeColor=#b85450;" parent="k3YBJciJK6Rs7I6JHjRl-45" source="k3YBJciJK6Rs7I6JHjRl-46" target="k3YBJciJK6Rs7I6JHjRl-51" edge="1">
          <mxGeometry width="50" height="50" relative="1" as="geometry">
            <mxPoint x="590" y="70" as="sourcePoint" />
            <mxPoint x="410" y="130" as="targetPoint" />
          </mxGeometry>
        </mxCell>
        <mxCell id="k3YBJciJK6Rs7I6JHjRl-62" value="next x need wait y valid .&amp;nbsp;" style="rounded=1;whiteSpace=wrap;html=1;fillColor=#f8cecc;strokeColor=#b85450;" parent="1" vertex="1">
          <mxGeometry x="346.25" y="1664" width="310" height="30" as="geometry" />
        </mxCell>
        <mxCell id="k3YBJciJK6Rs7I6JHjRl-65" value="" style="shape=image;verticalLabelPosition=bottom;labelBackgroundColor=default;verticalAlign=top;aspect=fixed;imageAspect=0;image=data:image/png,iVBORw0KGgoAAAANSUhEUgAAAUQAAAB3CAYAAAB7czlxAAAAAXNSR0IArs4c6QAAAARnQU1BAACxjwv8YQUAAAAJcEhZcwAADsMAAA7DAcdvqGQAABIXSURBVHhe7Z0/SBzbF8fP79cKwrIgBITHptAmacQqsLGwjvJIH32FrVhsE1KHNBZia/Hc9PKI1hZGeFXYxteYItsEHiwsgmD9+51z77kzd2ZndmfGWXdm8/3A4P5x5/9855w7937Pf3777bf/EQAAAPqv/gUAgF8eCCIAACgQRAAAUCCIAACgQBABAECBIAIAgFKKILbff6azwx19l4z5n7MzO/35gdr6OQAAVIUniRB3Ds/oYOWWjt6+pbcy/fGRrvU7AACoCtMXxI0PtNns0dFYEdyhQ4kcJ0SZAAAwTaYuiO1Xq7QwJHr9p6bLPH1+j4QZAFA9pi6Iz5sLRK1VolNNl497ROsHdLir/2DoUke+63T1PQAAPD1P0ob48O2EPl7pm6uPdNknWnqGKBEAUC2mLog/hg+00Hyu7wAAoLpkF8SND/S5QJeZ679v6aG1SR829AN5yNJ6oNu//UcseKgCAJg95UWIra2wn6Evbpwiv7sY0Nq+fr6/SrfH78IUGgAAKgL8EAEAQHmShyoAAFAHIIgAAKBAEAEAQIEgAgCAMlEQf//9d30FAADzDSJEAABQIIgAAKBAEAEAQKm8IIq5rBv9Atuw/GRxM8+FDOGE4zmYUyaOVJGHKn/99Ze+mx0ijJvDI3r3qSpe22368OcBrS3q2/55fvsyEZf9NVqI/3b3kM7etPQNE//e/U7f9i/eUudU3/iY+RCdv+1Q5jWbtGxGjsUWFdheACoOUuaCtN/v0er3I+vx+Pac+q2tXBGsidx2iW77+oHPaUfnK9MR9Zr+vFmId2U8uH5/0afWm8+heUbADh2ysPUvcoihMHbZlm7Hfh71tASg/tRXEI37ziFf9jEkwikrpZN5ObMKnnwBuP70zotWu3TDwpbZ5ozXfa95aWrL/NSP0rmmn0N9abimj3945hinN9TnWLHhBXVC+/0mtTi6S40cU7YrSnzZDl6HKxZi3g6kzmCeqK8gXv2kAS3R8khkVBYcYb24CaMlE4klCHARxAEoc7q5Qy9H7NIm0abXKwvU/ydpGXm2a8yyRYgXV+n11PY/AE9PjVPmH3R3ry+9aLH9bIlo+HNMQausdKnji5aJxFIEmCOuLRaO3kV5bWph2dYtjvQuU+3Sdg75+/sefYlEgs+psfhAd0npeIbtyrZs2f+jkSkAdabGgijpnL0g268aNOCL313UD8Mf9sUj8Z9wG3HQzyOIGJu2unI9HiUld1Hc0XAzsRlAhGur1afzeEXDjWWWuHQmbVeWZbt0GqUgwDxR64cqUp5g6dkOp4dENxd31HjVNkWtBv8+Pj4MxEaFwTw40e8CRAz314i+HSW31ZWEcR1fbHDcFyLrd7BO1DtOeGhimhOSybRdHknLtrRpuUml7GsAqkKtBdGyTI3hDXVZBGhlm14201LFAtzfcWJoMampvjZ4YpjaFcik8hyFPfIhz84b6ZrD26jvQzFMi0onpLPjtitGfNkh49JyAOpJxfshSq2V0Qv2wYmQ9plz/fBM/zgT/eTsapJIdNkP33o0WF+lOxUhuyz9MuAhJlKur2J8nZK3y/X5s4Lnehkykb6AKb+979GRlzqbeazcRj6zjN+u8cv2kH2/cZcwfwDqS206ZtcVI5zNqFg9DVb4KK3T9qOwQt+4msa8AZgdc5AyVxTt6zcbMRS61Cmzq5DHziFHvcOUPo4A1BhEiHOOSYGlE3hS2lsEaRfdJTpBqgzmEAgiAAAoSJkBAECBIAIAgAJBBAAABYIIAAAKBBEAABQI4pwj3W5QQgCAbKDbTVF0LLM3yC19mFsabh4jv5tUniA+fC9luKIZ2ogSAgBkBRHiY5Dxw4FrDE85BMJEbiklBMaXJxCxtEPy3HLP+y3aGokCWTRRQgCAXNRAECUa8vz7XLpmnGRmV0LgUfC6jyshML48wajLjNigxUEJAQDyU3lBFHuqpW8uWuLJDRn7ZUoIxBGBXKC1fV0XEdf1eLkAlBAAoAi1SJkXVl4nRCIVKCGwuEYHQaRVkljG4WguXp6g2xEhI9qS5e7bCnzRSBAlBAAoQuUF0bRXUSg8YXo34xICEuW5KIuno29LLFAli6IIfUJ5ArNe4kVoIrwBR4uxIv4oIQBAIWoQIUrZTRWe4x4tvQlFceYlBDyM1b6+LgURw6TyBPz5pkSMp9p0IA9BOO1dWN8OxRglBAAoRC1S5oDEC31GJQQiSPH4BKt9k8pzFJb3IY8nhsnlCaKp6s4LfuOtK0oIAFCM2pUQCMoHCNpnbhYlBCTS8q32I+sVUKyEgN0O/SzAK0+g2x0QKx8gmPVDCQEAcoGO2VPGiBtKCABQC+qVMtcJ7euHEgIA1AdEiHOOSYFRQgCATEAQAQBAQcoMAAAKBBEAABQIIgAAKBBEAABQIIgAAKDMlyCaoXJj+t1J38CRYXTSgbnA8DoAwNyBCLGGSN/C0K3GTmWa15rx1/6UsyaLW7/S1gmAJwKCKCM6xPWlZh2NZey0s+iSqdRRI4VLI8iQvjPao9uxDjoAVJUaCKKmtGnRig6RM1O86BMTiaZ8QwQm8l2ZlelKIBoFfqYPZTpT+/uMp7IiOakFI+Ob331KKowAQPWpvCDuHL6kmyBasQWXggtY0rs3S9Q71u+Pe1FPQr7wD9YHofffRTRucUaoR99KdTJ8PLxd23Si2yzrR7S2W1YbJ99gplQaQfYnxjeDOlN5Qex2fNssW3DJuTSLVx99O0mxuOf0baNA1bkqcPWROp6VWJJJ68L6QRjl5YpuK1IaAYAKUv2UOZbejfoEziO2LS7Y7lhTgG/x70qF5hHFsSUEnqI0AgAVpdqCaFJiawDrLtDzX6C13thrkfdgI94UEOGavn7PnvJL2+RMSyMAUGFq8FDFs6nnaNGPEKWmSliRb4cOI5GULYLUeqGxjYprbQgqB3K0KOUJzOsEeLtGy5AyLrJOihwfWxph3LwBqDGVt/+K2Onf96g3XKPVobPrl9RSLPrlS7HYv6TGvjyEce2G1jXa/pyjouM72gy8/PzfeqRZ5j8lIt6euPe/9WhpvUGXZrvi6+2VFoig2z5SXsDfJ5NLCCSXRkiZtwhlwk3HlXgAoOrAD3FuUeEcTkPgpzlvAGZHDVJmkBfbh3E6gjXNeQMwaxAhAgCAgggRAAAUCCIAACgQRAAAUCCIAACgQBABAECBIAIAgAJBrDwyKqRcP0TpS/j5PQomgKoj5/4Yv04zhDTdeMT0mc1ZGgSCWBgZreG5xuQe12sPtvt9skDJMrZoKdXibAIpY46vP13SYP2gNGPYMpGhmna9yr8RyLwreSOQoZpwFKoEEMSCiDv06ndn42+Na7NfbE7o9PfHPaIEgZJliOvNychY4iywoLxZon4/yaumSx1e5lJJxrDl4pl50IB+FrkRAFCQGoxUkUjBc2RxhgLGAMEZHnhIVLRxFzM0KEjMrGCcSYExoaCMw9nMfInOvXUf/b1s92ZguhBFxxI7g4cRA4dwfkfDTTpoXiaul/zPZmCUMWNi+9on2WBilLgxhTte8c8DfCOPmKHG6Hdyrt3QS3cuxvZ5dBlir5bFmDh2bgdEDTvMsQz+Kc3MI4Vx57C7Vvj9ntt2b7vd+XFCe8G2Ra+B2PoHv7XnpwQM4XFL+mwS464Bxq1/yrVujknKuZ9G5SNEsacKIimZ3MZf/eT4Ieb0XCp8MKZktd9+tsQnT2ipJQfOnPDNZT5tlN2X1Lq/pa8JJ0L7/TbRqa6XGMRyHLnnR6d8ohjPwwknQvefvmefNmNOO7wt4s2oXo1S7kFEh19nuoBYtPb8chE8uQvXGeqKl2akOFewf/hYsyAM+GK33yVF/C3aMhenfr+4Rtsuouf97ZeqMKa6mdqutMCZ8bv0PSpDATDnRtPuBztvorX9rOdhhnNY3NGN2PP3sh6tzUgzhTizG1Exy36gFu9nt13p5T2sR2fk3Np4TauLD3T7d1YxFH7Q3b2+TKJ/x/stnet/B/oqO7VImZMvWm9nyR1c22CM2ARego8hg9W+wwgQ37kvst+JDHKHOzujg5VbOpKT0SsTMG47rj91vDumnnzN4JfZSyfICRUrTVAVih3HFr0s0C7afr9prMy+BJEPH3sWj/h5179wQhUrZfEiur+ljba/uEqvH32z3qFtjsz6V2EEdP3phHr3WbczyzksEaeu+9VXur1foIYfsspNSecRL2UxrrxHfB+0X63SQv8ye2Q7IyoviN2OjYBcjY+wnU0MYO3Ba79q0IAPhjvQD0Nnf/o4JGVwDz1GrPYdIsackoQXS0b4bmrCfbm7StTbatCCZ9z6vJmQ4jnMDSBcNz8dNO2Ow/PU1D7C1KPs7Nh9LftYIjHdJtlHWR82SOkDEwHpfsn5dHGy+Pbpxtun3Y6LXNu03ORVdcs1U8q5Ugi/TTU/E8/hSBZyTR//iDYLPXz/Gu4XU17CE0G9obspWt5DBHKBVl/JUWjT6xXKHzDMgBpEiPYgmbDcPAgIRVEcs5ee7ZidfXNxRw3e+SIkg3/zxRVJ2DTWT2MknYshwsSpFnEalkmAFBvK87z9NqhYRCTbloxN72SZdr1sKmORE88JiT1JQ2FJeGK7scxyWI0HFyIwfpocprcZIl2HSbvtPjkf8k00jyj6zRWMOR45kLY1t2w75bxBphKL2Dg+a8RNjVPIdA4XJQgEwm2Ol/cImmQkXabk5p/xyLU/Zj+KQKe0HxrkfJjQbBSnXk+ZTUQTZ5kawxvq8ne0sk0vm4+7o0YYZ7XviWFqG5eL5OIXpkldOBIKusNoauSVATCiGbtIfQLR52VICQGLd/PQyYilNHYnXaCxqLQSeDeFx9zYkm4o0ZITITYV9NoEE1LVdGyTxaPal815nZQG2zTUb7cbTe8nkLlcRBHSy3sYTr/Y9u3dVRpk2pcx9PpJ670hgj+uZrmNjvMdl4oLojxlCkNyCfnlAUvQWM6isbDOomSEhE+eISdci+VEPLYNJEzVN4e9yN1VSqCKDEXKgcYPjmmT4b8j7XTSmG4bod12UeTpHSOiGblIHV36Io3bLkXbb9BtwbrS0vYVSYlmTBiV2TQ0D/bicMdBIuNBJAIXTPub1/wS9M+USEOzD/v76Hk2CXloY6sTut/zlCtlt22WYdodnkcSOZtoV+ebtF1pTDqHHwXvs0tOidf2dZ037qg3MnNt3+Zr0m9uqDIwiJ0ycpcyTwkznsQ+cpGbBy4FfjsRE+EmdFsCoETMOZyz68ssqVfKXCe0wbmoGAouool0qSkF180EYgimiGnOqcfDFAcixMojzQZjOqcWQO7ae3SSo4MsADkw2YdtUop25K4+EEQAAFCQMgMAgAJBBAAABYIIAAAKBBEAABQIIgAAKPMliGaoz5ihOtI3cGQEgY6GyWsGAACYOxAh1hkd6zkdMRdDTxmWVczG37msxF3AAagyEEQzrvhtaDxbG1iwdtdo0C9tdGoEayMmdq0FkIH+Tf7tOHNPACpIDQQxZvAQL+bke7Jp73ifyKD/mEV95LvcRaKmS2TdEqI0V2/lyz/6QR78fcbTSBQXDLm60Q/ywMdLbKGuvtCdfgJAXai8IKbblDOSMr5Zop6xdefJWLF78IXvW7sbvz0PZy0f+glWBN6ubTrRbVbb+F0vLXaCdVokqmXBGmsrbyNPKljpz1hM9TMa1AJQMSoviONsysWCK/3CzWGlXzWuPlLHG2cct24fv92TmGArv7ttIs9Clf5YqDcz1HIBoKpUP2WOpXcjJpRziXugoZPfFGDa54qWJrWk28pLussRd6HIU9s04aADaky1BdGkxONtyueRncMDE6W5Smt+U4CYuppKaU7QpF1U32d5oittk6m28lLpj6U3MP00YqnvJ7Wxmqpqfm0RWybVvEeXJlATavBQJd2mPGoJz9FN5KGKFKHiC/KFXsgqrrUhsNK3kZfbLlN7JBAznrw6JJF2OxdZJwlZmq28V5PETiKWUpWNX/tpcNK8xXU68tsj6t1rrZHaPcEHvyrVFsQJNuVRS3jxDIwW0el2PJt+cYeOPHQJ09KwEBO/r8DT5u6F1Md15QUOqPE99rAoC6ZtkInVZSnFVj5l3gDUHfghzi0i+Jy2Ds+nYN8+zXkDMDtqkDKDvNg+jNMRrGnOG4BZgwgRAAAURIgAAKBAEAEAQIEgAgCAAkEEAAAFgggAAAai/wMYA73HC89MLQAAAABJRU5ErkJggg==;" parent="1" vertex="1">
          <mxGeometry x="40" y="1200" width="324" height="119" as="geometry" />
        </mxCell>
        <mxCell id="k3YBJciJK6Rs7I6JHjRl-66" value="" style="shape=flexArrow;endArrow=classic;html=1;rounded=0;fillColor=#dae8fc;strokeColor=#6c8ebf;" parent="1" edge="1">
          <mxGeometry width="50" height="50" relative="1" as="geometry">
            <mxPoint x="379" y="1259" as="sourcePoint" />
            <mxPoint x="449" y="1259" as="targetPoint" />
          </mxGeometry>
        </mxCell>
        <mxCell id="k3YBJciJK6Rs7I6JHjRl-67" value="" style="shape=image;verticalLabelPosition=bottom;labelBackgroundColor=default;verticalAlign=top;aspect=fixed;imageAspect=0;image=data:image/png,iVBORw0KGgoAAAANSUhEUgAAAVAAAAB3CAYAAABVNhjjAAAAAXNSR0IArs4c6QAAAARnQU1BAACxjwv8YQUAAAAJcEhZcwAADsMAAA7DAcdvqGQAABPZSURBVHhe7Z09SCNdF8fP+7YBIQQCC8JDtjDN2oiVEC2sV3mwX93CVizSyNayjYXYWjxm++VhtbZwha0kjdu4xaYRFgIhIFi/7z33Y+bOZCaZuZlobvL/wbBmspmZOx//Oefce8/5z19//fU/AgAAkJv/6n8BAADkBAIKAACOQEABAMARCCgAADgCAQUAAEcgoAAA4MhEBLRx9IW+nuzqT8nI//P1q1r++UQNvR4AAHzhVSzQ3ZOvdLj0QKc7O7TDy8djutXfAQCAL7y8gG58os1Km06HiuYunbBlOsKKBQCA1+TFBbSxVqdSj2j9H+2+i+XLERx4AIB/vLiAvq2UiGp1ogvtvp+1iVYP6WRP/wdJi5r8XbOlPwMAwPTxKjHQ57tzOr7RH26O6bpDVH0DKxQA4BcvLqC/e89UqrzVnwAAwF/cBXTjE31xGIJ0++OBnmub9GlDr+BOpdozPfywu5TQiQQAmH4mZ4HWtsJxnrYYCpf9w1WXVg70+oM6PZx9CF16AADwBOQDBQAAR16lEwkAAGYBCCgAADgCAQUAAEcgoAAA4EhuAf3777/1XwAAMN/AAgUAAEcgoAAA4AgEFAAAHIGAzhlZqgXkgqf0oqIAmFNyz0TiTqR///1XfwIBLCQHK1TSHyWdy3wp+cw2Bn7XoE//HNLKgv448D3nDtiimv4k/gNd7jRpYM97J/T1PSV/l4b8TbjlpDZxhYEtytlWAGYAWKBF8tQOy5TkzGcqLcM9ooeOXmHRONqn+q9Tvd1L6tS2rCTULK5bRFfhfi87NdoasDKFyAoh7FzlEE/mohlsd2fnlNoVe9+KVlOtj+Z0BWD28VBAdaYmsxj3UWaHOhHfxmALqigXk7dl7bswwRDHvl+5lrWhHvUqm9vPH+jDZ5OtqkX3QmTDlIBvqbzwTH1LeDllYJzG0SbVhPXYvNArbDK365Yee/rPCLd0fNOhmmgHXHkwT3gnoLsnW1S9M9aYWExtpZtH6lKVFk2avMIRwv3uPtzvlRCM9wmC7QJnqHJ2f1lQS7RyoI+FxXi1RJ2f9vYatL4UX2fI065dWh5IPai5uKfOQp3WJ3b+AZg+vHThS0vrCZbOb+o/6T8ta7TxpkrUeyyg6meLmrbIsWDEBXthhQ4DS64gcY0jrMUtIWLtq/BYWk0WPqIt3q9MD7gTszQHrdSQ0e0KS1BvCSv2OiX1IJ//EpWtcCkAs453AirjbRQKVehusnupHuDGWpm6QiyMCDz3fqs/xoQ7S4ybK8VEr5ewFWmsOLGc3lWFoBUsovxikHHMaP5UeVwbfRV/1blWI3HKjUUhiekMbZeAQwhBu3qbKSER5d6jNAuYJzy0QG/p+KMWqrM2Vd+HIsqxv+qbXeGuEt1f9am81pBF7Lp/xrc/2QrbqnHvtt43d+bo75KQmff134XA4nmwQnR3GrUuxXrO6N++0KEM7vQRbnhpdTsUbxneSMapXQtlYdPGadBihQo51wD4gpcufECiMCxSuXdPLfEdLW3TciXNdXXgqS8cVQXHYtO91QZ92uPhSOI49BqJDC0IKy9vp5YlnmFnkk3Udd59Jz5YxzrSvc7cLvH9+4R2SYaFCQCYTTwbBxof78gVPi1R0WMWO1cqBijHJ0rrKufQnUSi+36+a1N3tU59XY6ELbnD1XAUaOS4Asx4zvgxDbZLosdcqnbodQHC6jSlUHS7A3g4lelc08jjW3oYWJ+3XaljW/kYOIwwsH0AZhcMpH9hpBhWBgVu8iih5PGiiUOZxkK9GMo3k9g2ANOL3y68T+ixlq8jnkyLmkUOvbLYPRFWdS9ljCkAMwws0DlDuuQ8aN953GkMjs/uEZ3DdQdzCAQUAAAcgQsPAACOQEABAMARCCgAADgCAQUAAEcgoAAA4MhsC6icOjlk3COPzRyYVskDzh2mWwIA5g5YoDMAj+0Msymppchkz3L+vr3krKlkjq+wYwJgSoCADtCiJmcl8mxgOM+9NynneCl0VpBzqRKe4vmV9ulhaIYnAHzFQwHVLnaaNaSnTMolXuRNELHW7AQcgsh3RVauLIColfmFPhWZ+d0+Z2IpylLkWk48P/7D56RCJQD4j3cCunuyTPeBNaQKrAUPPLub76vUPtPfn7WjOTmFUByudsPcl1dRu8gkDj69KzST5/iIdm3TuW4zHx/Ryl5RMVrxQppQqRI+n5gfD2YZ7wS01bTTwKkCayYLOueqpLvzlJITwp3ccKhKOQ3cHFPTSo2XlNS4tHoYWpG5rOcpKVUCgIf458LH3M3BPJmziIolBu2OhSbskhum9HAeER1a0uMlSpUA4Cl+Cah00VXCZPNAX85B74RMF0dWR048NBHhlr7/yh6C4Njqq5YqAcBjPOxEsspGCGvUtkC5JlJYsXOXTiKWmip6VnunbSctxt4QVBYV1iiXC5F/JyDaNVjWWGAs9yTLdNxSJcO2DcAM4106u0h5i6c2tXsrVO+Z8hns6nLJDP6SS15cU/mAO51M3FNlZVc/F1bXWZ82g1yW9m8t0kpYvCQs9tbLoHPXpupqma5lu+LHbZX6iKDbPlDuwz4no0t6JJcqSdk2C2vCS8qUXAHAd5APdG7QQtubxAthktsGYHrx0IUHeVFjSCcjcJPcNgDTDixQAABwBBYoAAA4AgEFAABHIKAAAOAIBBQAAByBgAIAgCMQUAAAcAQC6h0866fYfKA8lvPLEQqYgGmH7/0h+WrllOL0RDdyzHLBpXogoIXBs3GsrEa554Wrm8P8PlnQeB9bVE1N2TeClDnrt5+vqbt6WFgi5SLhqbvquIp/cfC2p/LFwVN3kfHKCyCgBcHZ1+u/TFkNleg5+8NphFH//qxNlCBovA/OynQ+MBc9C0KA3lep00nKpdSipthntaBEysViJY+hLj26vDgAmBAezkRiS8TKGGQSWMiEGybBhgVbXRv9WAINR2LJMYYlxZBJTyjj9Ea5XaJL69gHf8/t3gySfETRc9FNQpGBhCHh9k57m3RYuU48Lv4/m0Fillcmdq5tkhOaDBJPhGKuV3x9gJ04JpbAZfA7vtfuadnci7FzHt0HpwvMksg7dm8HRBPEyGsZ/Ke05DEpDLuHzbMiPu+btlvtNvfHOe0HbYs+A7HjD36r7k82MMLrlrRuFMOeAYE5/pRnXV6TlHvfFe8sUE63FlhqvJiTdfMo7JNYJvVCERdvQqUvGm+q4mYLU8TxhZYPSGVR3GaavWWqPT3Q94Qbp3G0TXShj4sTKgs7dd+2fsWNJXN+jrhxWj87VjrAV+aiKdrCuUl1rlIuv8IiJf7O9MAJkdu3y7eIxTzoJgE155KNFOMLzo+41kJAukIc1HdJHkWNtuTDrL9fWKFt4zGI822XjpFJqDPF3nRBQ5nv1c7RGgqGvDcq6jyobROtHGS9DzPcw1x9QL4cxPd8HLXNSNiEKx9IEZL7fqaaOM+mXenldlSO2si9tbFO9YVneviRVTyZ39R/0n8m0emL85bO7Z+u/qs4vHThkx9y6+SyhaBjSFKcglya45Ch9IVBCpawDK5yvun4Dfr1Kx0uPdAp37xW2Y5h7bj93LTeyPpmrQS/zF7KhG/AWKmQacHtOtZo2SGu2zjalKn5vgWWlbj2Qmzi913nyghbrLTMu+j55hhzZ6FO62O/3HdpW1h+nZvQwrr9fE7tp6ztzHIPs0Wrj/3mOz08lahsm8T8EtPbiJeWGVZuJ34OGmt1KnWus1vOU4p3AtpqKgvL1OgJ44ScMFld7MZambri4pkb47ln0gWPB7swppNnoPSFgcVbuEjhw5UR8baW7ge/vdmqrpWpZCU6fltJcDkN8oURHpvtnsq4ae8yNdQQYeJWfHbUueZzzJaebhOfo6ydK1yKRFpY+rzk7X0dKdYdurfOaatpLOMGLVbEoZr9yiXlXnHCjgnnZ+Q9HPFybun4YzRM9fzre3heZLkXSzS1AWCWaLkdFtQS1df4KjRofYnyGxhTiIcWqLqo0k2QHR+hiHJG+uqbXXlx7q/6VBYXi4Wn+yef3ZKEcqttt4rdyxgsZML1I+EWZhIsjXItxLbtGFrM4uK2JaPcTd6nOi7lWin4RjXCo27qUIgSerQ3FoV8TkdHDQuS7baH7nYGS9ogwwDqnFz2xEs3j4ja4ROBvB454Nig2bdacr5QU4lZhML+K8eTgKeQ6R52JTAcwjbHy+0EISJ23yk5HDUcfvaHnEcW9JT4p4TvhxFhrLz43QsvLaY4i1Tu3VNLfEdL27RcGe+NHWFY6QtLPFNjdMZSjD/I0pUSllYwvEi7alZZDimysYfaJnhJiH1wSQ+F9bLRixRXDu4nPdAxq3cqsF4i47wIk15A0RIwIco1tWKaCa5zOiqEMlZ8XN7XSW65covtuONguGEEmcu3uJBebkdy8U3F5/fq1M10LmPo5ydtdAu/IBINA42yvse4Lgl4JqDcCxe6COyCcIdS0DkgRKa0KkRMCo+42XrCAVwoxqJSMZwwdLDZa0fe3lxSmWUrUl44fjFlTEn8OxBn5M4DFXQ37aJI76aARTbyUBta9I2D+cZlPCjTg2Nde47dRVy0Vya0+pRbnAf1MJnrwJZ3N2LhMzJ+aIWDgvGxbMlo70b9PnqfjYI7qVT1UvN7seQKIaiYaxgGCO8jtsylNa23m9SuNEbdw2Mhztm1cNFXDvQxb/SpPbBxHZ8Xz6Qd/vAZJFR+YfgtKHtRM970NiwKsoPJ4bcjkRZ0wjAwAApE3sMFDyV6Tfx24X1CB9hdxZMxFlNkiFIhmGE7EE8wQWR4aTY6jwywQL2DwxhDBhM7wFbBPp3nGNAMQA6kd6NCXNGB9/4DAQUAAEfgwgMAgCMQUAAAcAQCCgAAjkBAAQDAEQgoAAA4MtsCKqd+DZm6xWMzB2aI6NlOeZNPAADmDligs4SeKzwZ8ecEuDxNz62shskCFM+yD4DPQEAH4HnpO2GiZm8QAre3Qt1OYbObI6i0eJze2AFOLFERvx2WDBcAD/FQQGMJReLF2+ychHr2g00kyUSsZETku9xF4SZL5NgSrEBTL+nbT70iD/Y5E8uAlRhMwbvXK/IgrhenObv5Rn29BoBZwTsBTS8bIGAX9n2V2rLMglhkaQQLIRR2qQWZb9LClHoI82lOCaJd23Su26zLOOxZbroRuAsXq1kI3NAyD8qyJcdKoDJlWidjQmcAPMM7AR1WNoBTyqU/6DlKW0wbN8fUtOapx0spDG/3KEaUedjblpatUyVQIeybGWoxAeAr/rnwMXdzIGnrTGI6cPRihyZkfNG11LEivcwDu9/ConeybHVMFhmewAzjl4BKF3142YBZZPfkUFqBphKjHZrgJMiykqIRQI7r6s9Zerw5tppa5oErgQqpDpLkSnHVn0fFiGXVRbs2kCq7LD9jiBiYETzsREovGxAt0SCsp0gnEhedEw/wO/3gazH2hqC0hbLsTLtk7aBA/MRi1RGKxB2N5Z4kfGllHqyaQmphceWqjeJv2y1P2jZndY/89pTaT7pWkHcjHABIxi8BHVE2IFqigXNmRotmtZpW2QzOvh7pZArd5LDwmvg8Bb3xrSuuz23KfRxS+VescywLMrYpiNVVKqTMQ8q2AZh1kA90buAXhHCje5cTKKcwyW0DML146MKDvKgxpJMRuEluG4BpBxYoAAA4AgsUAAAcgYACAIAjEFAAAHAEAgoAAI5AQAEAwBEIKAAAOOKdgNqJL74cYd5LXuS4zSJnV/GUWMxtB3OKt+NAWUg3e6f0YYwsRMWiZ+Ms6I8dh4HlLEY8fz/+W55rbs/bj39vfqc/8nzzxPybcjtElzs5MiSN2reAr8UWYSA9mD/gwhcEZ4Sv/zoNk27UtnJZyNIy3CN6SJqIHknqcUrtir1tTi5SpweTRFomRE6qW6Qzw+dNLzd034pWU61HvSMwb8yOgLIVllSBky2oolxMk3VIL7ZgcDb70BpWiZ5LFZPyeATi2Pcr1zJL0aNelY7KKhVyS8cfP4TJlGVijxKVY4mmGkeb6Znhh7QrSnzfBnEMN0K4RTvgyoN5YnYE9OaRunYm9cIZVfpiDDj1W2b3d5eWa8/08CNP6KJB60sl6vxM2keedg3ZNwv3Qp3WJ3b+AZg+ZsiF/019U/XRskYbb6pWLs1xGFH6wkZYdFtCaNpXxcUEVdIOthC5xtB1avkOmc/zqU3fIpbmWyovWHlUI4xuV7Z98/kftHwBmGVmSEDZvVQPcGOtTF0hFkYEnnsmXfB4pJe+sGDxlrFGy60uAFPwjpfT3mZiWIKFTmaXjycs3lgUkpjOqHZl2bdx7019KgDmgZnqROKM9NU3u8JdJbq/6lN5rUFvKyXq/hnf/gzESQtJpPSFgcXzgAu8nU60CmW8qBzDx3fIlTnPEjqJZHgjmUztskjat6JBixUq5FwD4AszJaCKRSr37qklRIOWtmm5kua6OpBW+oKxxDN1aJUMLQgrb8xOLa7CWeqINurPoXimWb0j3Oth7YoR33fIsDABALOJZ+NAd+kkwcV8NqKlxyyacZByfKK0roqoDBnd9/Ndm7qrdepr0VL70l8GcP0gW9TMWNH4MSW3y4y5VAIZVneKjsVM+S3XRbJcebmNpYfIOsXwdg3ftwWf+41+wvYBmF2QUPmFkUJbiYrby6CEktIG2Y+FejGUbyaxbQCmlxl04acUPdbydcSTaVGzyKFXFrLsci9ljCkAMwws0DlDuuQ8aD/JDXeB47p7ROdw3cEcAgEFAABH4MIDAIAjEFAAAHAEAgoAAI5AQAEAwAmi/wOtyL3HxGvS0gAAAABJRU5ErkJggg==;" parent="1" vertex="1">
          <mxGeometry x="460" y="1200" width="336" height="119" as="geometry" />
        </mxCell>
        <mxCell id="k3YBJciJK6Rs7I6JHjRl-69" style="edgeStyle=orthogonalEdgeStyle;rounded=0;orthogonalLoop=1;jettySize=auto;html=1;exitX=0.5;exitY=1;exitDx=0;exitDy=0;fillColor=#d5e8d4;strokeColor=#82b366;" parent="1" source="k3YBJciJK6Rs7I6JHjRl-68" edge="1">
          <mxGeometry relative="1" as="geometry">
            <mxPoint x="640" y="1360" as="targetPoint" />
          </mxGeometry>
        </mxCell>
        <mxCell id="k3YBJciJK6Rs7I6JHjRl-68" value="" style="rounded=0;whiteSpace=wrap;html=1;fillColor=none;strokeColor=#97D077;strokeWidth=2;" parent="1" vertex="1">
          <mxGeometry x="490" y="1240" width="300" height="90" as="geometry" />
        </mxCell>
        <mxCell id="k3YBJciJK6Rs7I6JHjRl-70" value="it will use x operation cycles(11 cycles) to do these thing" style="rounded=1;whiteSpace=wrap;html=1;fillColor=#d5e8d4;strokeColor=#82b366;" parent="1" vertex="1">
          <mxGeometry x="480" y="1360" width="320" height="30" as="geometry" />
        </mxCell>
        <mxCell id="k3YBJciJK6Rs7I6JHjRl-71" value="" style="rounded=0;whiteSpace=wrap;html=1;fillColor=none;strokeColor=#FF0000;strokeWidth=2;" parent="1" vertex="1">
          <mxGeometry x="80" y="1220" width="110" height="20" as="geometry" />
        </mxCell>
        <mxCell id="k3YBJciJK6Rs7I6JHjRl-72" value="" style="endArrow=classic;html=1;rounded=0;exitX=0.5;exitY=1;exitDx=0;exitDy=0;fillColor=#f8cecc;strokeColor=#b85450;" parent="1" source="k3YBJciJK6Rs7I6JHjRl-71" target="k3YBJciJK6Rs7I6JHjRl-73" edge="1">
          <mxGeometry width="50" height="50" relative="1" as="geometry">
            <mxPoint x="163" y="1360" as="sourcePoint" />
            <mxPoint x="135" y="1330" as="targetPoint" />
          </mxGeometry>
        </mxCell>
        <mxCell id="k3YBJciJK6Rs7I6JHjRl-73" value="lw can&#39;t after sw x and sw array" style="rounded=1;whiteSpace=wrap;html=1;fillColor=#f8cecc;strokeColor=#b85450;" parent="1" vertex="1">
          <mxGeometry x="36.25" y="1360" width="197.5" height="30" as="geometry" />
        </mxCell>
        <mxCell id="k3YBJciJK6Rs7I6JHjRl-120" value="" style="shape=table;startSize=0;container=1;collapsible=0;childLayout=tableLayout;" parent="1" vertex="1">
          <mxGeometry x="36.25" y="1790" width="570" height="70" as="geometry" />
        </mxCell>
        <mxCell id="k3YBJciJK6Rs7I6JHjRl-121" value="" style="shape=tableRow;horizontal=0;startSize=0;swimlaneHead=0;swimlaneBody=0;strokeColor=inherit;top=0;left=0;bottom=0;right=0;collapsible=0;dropTarget=0;fillColor=none;points=[[0,0.5],[1,0.5]];portConstraint=eastwest;" parent="k3YBJciJK6Rs7I6JHjRl-120" vertex="1">
          <mxGeometry width="570" height="35" as="geometry" />
        </mxCell>
        <mxCell id="k3YBJciJK6Rs7I6JHjRl-122" value="ss_tready" style="shape=partialRectangle;html=1;whiteSpace=wrap;connectable=0;strokeColor=inherit;overflow=hidden;fillColor=none;top=0;left=0;bottom=0;right=0;pointerEvents=1;" parent="k3YBJciJK6Rs7I6JHjRl-121" vertex="1">
          <mxGeometry width="95" height="35" as="geometry">
            <mxRectangle width="95" height="35" as="alternateBounds" />
          </mxGeometry>
        </mxCell>
        <mxCell id="k3YBJciJK6Rs7I6JHjRl-123" value="1" style="shape=partialRectangle;html=1;whiteSpace=wrap;connectable=0;strokeColor=inherit;overflow=hidden;fillColor=none;top=0;left=0;bottom=0;right=0;pointerEvents=1;" parent="k3YBJciJK6Rs7I6JHjRl-121" vertex="1">
          <mxGeometry x="95" width="95" height="35" as="geometry">
            <mxRectangle width="95" height="35" as="alternateBounds" />
          </mxGeometry>
        </mxCell>
        <mxCell id="k3YBJciJK6Rs7I6JHjRl-124" value="..." style="shape=partialRectangle;html=1;whiteSpace=wrap;connectable=0;strokeColor=inherit;overflow=hidden;fillColor=none;top=0;left=0;bottom=0;right=0;pointerEvents=1;" parent="k3YBJciJK6Rs7I6JHjRl-121" vertex="1">
          <mxGeometry x="190" width="95" height="35" as="geometry">
            <mxRectangle width="95" height="35" as="alternateBounds" />
          </mxGeometry>
        </mxCell>
        <mxCell id="k3YBJciJK6Rs7I6JHjRl-125" value="1" style="shape=partialRectangle;html=1;whiteSpace=wrap;connectable=0;strokeColor=#82b366;overflow=hidden;fillColor=#d5e8d4;top=0;left=0;bottom=0;right=0;pointerEvents=1;" parent="k3YBJciJK6Rs7I6JHjRl-121" vertex="1">
          <mxGeometry x="285" width="95" height="35" as="geometry">
            <mxRectangle width="95" height="35" as="alternateBounds" />
          </mxGeometry>
        </mxCell>
        <mxCell id="k3YBJciJK6Rs7I6JHjRl-126" value="0" style="shape=partialRectangle;html=1;whiteSpace=wrap;connectable=0;strokeColor=inherit;overflow=hidden;fillColor=none;top=0;left=0;bottom=0;right=0;pointerEvents=1;" parent="k3YBJciJK6Rs7I6JHjRl-121" vertex="1">
          <mxGeometry x="380" width="95" height="35" as="geometry">
            <mxRectangle width="95" height="35" as="alternateBounds" />
          </mxGeometry>
        </mxCell>
        <mxCell id="k3YBJciJK6Rs7I6JHjRl-127" value="0" style="shape=partialRectangle;html=1;whiteSpace=wrap;connectable=0;overflow=hidden;top=0;left=0;bottom=0;right=0;pointerEvents=1;fillColor=none;" parent="k3YBJciJK6Rs7I6JHjRl-121" vertex="1">
          <mxGeometry x="475" width="95" height="35" as="geometry">
            <mxRectangle width="95" height="35" as="alternateBounds" />
          </mxGeometry>
        </mxCell>
        <mxCell id="k3YBJciJK6Rs7I6JHjRl-128" value="" style="shape=tableRow;horizontal=0;startSize=0;swimlaneHead=0;swimlaneBody=0;strokeColor=inherit;top=0;left=0;bottom=0;right=0;collapsible=0;dropTarget=0;fillColor=none;points=[[0,0.5],[1,0.5]];portConstraint=eastwest;" parent="k3YBJciJK6Rs7I6JHjRl-120" vertex="1">
          <mxGeometry y="35" width="570" height="35" as="geometry" />
        </mxCell>
        <mxCell id="k3YBJciJK6Rs7I6JHjRl-129" value="sm_tvalid" style="shape=partialRectangle;html=1;whiteSpace=wrap;connectable=0;strokeColor=inherit;overflow=hidden;fillColor=none;top=0;left=0;bottom=0;right=0;pointerEvents=1;" parent="k3YBJciJK6Rs7I6JHjRl-128" vertex="1">
          <mxGeometry width="95" height="35" as="geometry">
            <mxRectangle width="95" height="35" as="alternateBounds" />
          </mxGeometry>
        </mxCell>
        <mxCell id="k3YBJciJK6Rs7I6JHjRl-130" value="0" style="shape=partialRectangle;html=1;whiteSpace=wrap;connectable=0;strokeColor=inherit;overflow=hidden;fillColor=none;top=0;left=0;bottom=0;right=0;pointerEvents=1;" parent="k3YBJciJK6Rs7I6JHjRl-128" vertex="1">
          <mxGeometry x="95" width="95" height="35" as="geometry">
            <mxRectangle width="95" height="35" as="alternateBounds" />
          </mxGeometry>
        </mxCell>
        <mxCell id="k3YBJciJK6Rs7I6JHjRl-131" value="..." style="shape=partialRectangle;html=1;whiteSpace=wrap;connectable=0;strokeColor=inherit;overflow=hidden;fillColor=none;top=0;left=0;bottom=0;right=0;pointerEvents=1;" parent="k3YBJciJK6Rs7I6JHjRl-128" vertex="1">
          <mxGeometry x="190" width="95" height="35" as="geometry">
            <mxRectangle width="95" height="35" as="alternateBounds" />
          </mxGeometry>
        </mxCell>
        <mxCell id="k3YBJciJK6Rs7I6JHjRl-132" value="" style="shape=partialRectangle;html=1;whiteSpace=wrap;connectable=0;overflow=hidden;top=0;left=0;bottom=0;right=0;pointerEvents=1;strokeColor=inherit;fillColor=none;" parent="k3YBJciJK6Rs7I6JHjRl-128" vertex="1">
          <mxGeometry x="285" width="95" height="35" as="geometry">
            <mxRectangle width="95" height="35" as="alternateBounds" />
          </mxGeometry>
        </mxCell>
        <mxCell id="k3YBJciJK6Rs7I6JHjRl-133" value="" style="shape=partialRectangle;html=1;whiteSpace=wrap;connectable=0;strokeColor=#82b366;overflow=hidden;fillColor=#d5e8d4;top=0;left=0;bottom=0;right=0;pointerEvents=1;" parent="k3YBJciJK6Rs7I6JHjRl-128" vertex="1">
          <mxGeometry x="380" width="95" height="35" as="geometry">
            <mxRectangle width="95" height="35" as="alternateBounds" />
          </mxGeometry>
        </mxCell>
        <mxCell id="k3YBJciJK6Rs7I6JHjRl-134" value="" style="shape=partialRectangle;html=1;whiteSpace=wrap;connectable=0;strokeColor=#82b366;overflow=hidden;fillColor=#d5e8d4;top=0;left=0;bottom=0;right=0;pointerEvents=1;" parent="k3YBJciJK6Rs7I6JHjRl-128" vertex="1">
          <mxGeometry x="475" width="95" height="35" as="geometry">
            <mxRectangle width="95" height="35" as="alternateBounds" />
          </mxGeometry>
        </mxCell>
        <mxCell id="k3YBJciJK6Rs7I6JHjRl-135" value="" style="endArrow=classic;html=1;rounded=0;exitX=0.588;exitY=0.029;exitDx=0;exitDy=0;exitPerimeter=0;" parent="1" source="k3YBJciJK6Rs7I6JHjRl-128" edge="1">
          <mxGeometry width="50" height="50" relative="1" as="geometry">
            <mxPoint x="386.25" y="1870" as="sourcePoint" />
            <mxPoint x="371.25" y="1890" as="targetPoint" />
          </mxGeometry>
        </mxCell>
        <mxCell id="k3YBJciJK6Rs7I6JHjRl-137" value="next x input" style="rounded=1;whiteSpace=wrap;html=1;fillColor=#d5e8d4;strokeColor=#82b366;" parent="1" vertex="1">
          <mxGeometry x="276.25" y="1890" width="190" height="30" as="geometry" />
        </mxCell>
        <mxCell id="k3YBJciJK6Rs7I6JHjRl-138" value="" style="endArrow=classic;html=1;rounded=0;" parent="1" edge="1">
          <mxGeometry width="50" height="50" relative="1" as="geometry">
            <mxPoint x="556.25" y="1850" as="sourcePoint" />
            <mxPoint x="556.25" y="1950" as="targetPoint" />
          </mxGeometry>
        </mxCell>
        <mxCell id="k3YBJciJK6Rs7I6JHjRl-139" value="current y will use these cycle to output" style="rounded=1;whiteSpace=wrap;html=1;fillColor=#d5e8d4;strokeColor=#82b366;" parent="1" vertex="1">
          <mxGeometry x="426.25" y="1950" width="270" height="30" as="geometry" />
        </mxCell>
        <mxCell id="k3YBJciJK6Rs7I6JHjRl-141" value="&lt;h1 style=&quot;margin-top: 0px;&quot;&gt;&lt;span style=&quot;font-size: 36px;&quot;&gt;Improve FIR&lt;/span&gt;&lt;/h1&gt;" style="text;html=1;whiteSpace=wrap;overflow=hidden;rounded=0;" parent="1" vertex="1">
          <mxGeometry x="25" y="20" width="270" height="70" as="geometry" />
        </mxCell>
        <mxCell id="k3YBJciJK6Rs7I6JHjRl-145" value="" style="shape=image;verticalLabelPosition=bottom;labelBackgroundColor=default;verticalAlign=top;aspect=fixed;imageAspect=0;image=data:image/png,iVBORw0KGgoAAAANSUhEUgAAAXMAAAB7CAYAAACGnmBLAAAAAXNSR0IArs4c6QAAAARnQU1BAACxjwv8YQUAAAAJcEhZcwAADsMAAA7DAcdvqGQAACQFSURBVHhe7Z0NcBRluu//uh8s5oM5CV9xAYEEdGL2gEhCQfwgUe4hlVUvBvW4lrquUJQLWNYWh4OiXC6un4c65RXR8hDPHrTQwk3g6poKVazEXQRKUIy7mKgkwJKsEyLJDRMih12V+z5vvz3TPR89PUn3zGTm+VFdpLtnenqmZ/7v08/7vs//ossuu+wCMoBFixZh586dao1hGCa9uFj9zzAMwwxjWMwZhmHSABZzhmGYNIDFnGEYJg1gMWcYhkkDWMwZhmHSABZzhmGYNIDFPBWY9QLmrNyAEWo1GeTe1Yg5j9VhXIHa4DgVeOLGRrx0qVpNEUYsrBPvm947LS8gV20n9H2TZ6kNKcMSTKbzTfJ3JpTKK+qw84oKtcYkGsfEvGDeL3DLHWqpmosctV2SOxeV+j59mTdd7WRSHRL6KxcO7Ue6rGw1yvz1eOBLtSEVKNiAolLgRG0VPniclhXwq11MJK7F2t/UY+PP1WoIez7bhS7v6pRrsDMFZ8R8QhXK8D7e2v6fYnkLrfCiMlSs/a3YI/erZf8XageTCvi3kZgtximf2uAkl76AxT9uR93BWrUhRSjIQ3ZfC/qivOfzuxZLkT9xWG1IGWpxghqfTetwXm1JDWrxwO8PYfycF7BMbWEShyvT+XOuvA2Vkzqxp/EA+mkDReblwCF9PQkkbzp/BcatXI2R+0JFgW6VF+JcrRDQghcwp7wXrUeL4S3NknvPHnoWn+5qkn9bQVHzxJ7Qxxpe07cBVy7JQ8fjzch7rAbjaHffITTrQiCi0yuXlCKb/kY7Wg3RKaUZZqrzMXGsHh9s04WZ3oc6riD8vCm9shp5LVVhUbl+7m1YHnidUw3Gz8n62BHPz3Ru1sjnT2sJfhYBjK87ICL3kEaO0mLiejXXAUX6Z2f3dem51YWG96ldq8kwXBMLTO857DXpvGeit7YXE/XzMl7rIXDvxnrcPEWtGBj48Dnc89RetaaxrKwRC/3PYtFn4d9f7TjH8XbNKmxV2xhn4Jy56zThXC+QNTZGmsJTCm/+Lu12v/YQULrcVv76fM8AsvML1Vo0CuGVDQdF3/U4JV6rQM8D+9bhU/WaZ9UmHT0ybT2mCamWihBLQEBIiGqQFdhXj4FSIUzGHHNOBYpz2tEcJb2SLR4/U73v5kMDGFeu54FjHDskRULnKIXLhqBq/QONmiiKz2KmypkHU0kq8qXPSm0Jg54nG0nxOPrspi60199weIX2Pqu1/PyIhcttCzmhXxM6RmTEtdbPK/RaD4Gtq2pQU/McDouW/vjv6G9tCRVy4uXOdmRPqEClWmcSg/NiLqLw0pIc+P4cEoXneg158yq41s+WgpDgapBAqQ61gknIQhfO6RGfUYh8TTjdl4XRM2Lnqc93d6m/NJHSBKkQIz0DwWMLTjXo0WUteoXwxWxc7FBQgdFCiNoC0XItfCRU3iVqXZCTh+z+XhxVq2EY3vf5T1pw1pOniXmMY4+YUWxKkfhb24XAqufGQEspKUGk15fCV2XrTigIRezqLkZdr5E2v9QkyK3HCjFx4QYUUINUN/TIOYjhvJy81vEgrvdZcd2nqVUjWqPAUbkbOCzm01FW5QWOvIWDnWoT4T9gypfvOZKNsgwSdBJcGT0LgRrZK0RH/3H19Ub5EWvRvC184oeTN0mI2BLkoR0DgSjd0FCI7b2GFA+JWXzCFQXKORsi20C0a6Ayd7z6KzJnjzYFPwN5l6CEKMaxZSPmKYZHfYlyveJ9H2tOXAemKdfehFOb4sut+7fRnUapuPPY7E4/RTLpPym+feMxyTQKgnEbB8VcCPkd16Cg433s+bRHbYtMf0dn0nLnSUEJbq6IJtFaj3P5FRhBYtV7MoqYC9HPEzFWtw3B9Z3EAEWks2Yiq6cevZiJXIr6ozYUDmOIbAOLIdWxxx+8c4gbq2PTZyrubSYv0YTeO7UdrTZSLKmBlkJCQ4S0VDqQM0lIeRdOZtSPPPk4JOZBIY89SiUf08u9yOloR7oFJLEYmd8lImQRdaMYBd7xONsjovRIzKrBZI85mo7FyLHA6U9ElNszHnmVVg1F/Mi8/DTRAKn1AIebZU62yGrYosUttyUxjp1bWQoY8/jDaFihnif3Ha7FiYb2QP48UVAnZH199CGG0dmLThGnTSm5V61HwSK1pr32q1h7vdrAOIYjYp5z5QwtZTLxGtNY8rIJcrcc3RLcfgsmnHwrs4Ymyui5VPyAtTSAv7UL46ZmmSNvY0qhWgTwtsWpHef6CjF5Wq+87ae8c9bUwugNRQj6xJg5cvQDdZTSOZjF5fyuzTgBw/ndpefEqaNQiy7ldrWYIs3+JrT0F2Jh3JNJrI/t30OdxOZ9oec9aGjEiTwejWjRo39nJlRpo1EMefLD9Tghrp/X1rlrfS50bjLlNLVGO8/A9bDH1iPH5f9jC66V/8fD1lVv4/iUm2VjQMurD4cfY9kE8f3rbMIetW7kmOw/ysLl8+J/bcYadhpi3OfSF7B7DlC3cwVeVpuGSqQhmbTNC/tDEzOW69fi1Qdnoft3NVj1X2qbU+RswM4b87Ar2rX++UbU3zQWh5+/B0/8QW1jHMH50SwOsKJgjPqLSQu+XIG6vxZicVl8EWR0tD4FM0uQNxW270gyE20GZ71bQi6uwUs3lqLrg0hCfi82UjTPQu4aKRmZfz6rGJt8X+EFsTjFcI3MZbQpRCoy5kk+qU30yUODwjTZSUOfVJS8z8w8ySmMGBOLhvu1ptosK7E54mQhxn1SVswJJwWd0ywMw6QzKZlm0VlZMIZTLgzDMDZIaTFnGIZh7JHSYu503pxhGCZdSVkxZyFnGIaxT0qKOQs5wzBMfKSkmKezkJeXv4TXl21VywbcpbYnhsFat9GQu8aUsyljGEeQE502DLFkr/bb2r2oMWnWeY6JuaVtnML0mEy0jRvzK9xXAjTvuBc/e5mWddimdiWCpFi30XjwqFPVVSMRWOKcjm957NhQnZBI09ETwvw78fTOZ/Divztd9dva2s0taIy8ueSBodyzI7j4vvrXYZe/FA8PYVJb5RXLUYZDeGpnVdLG2Tsj5jFt4/IxveoXhsdkqG3caA8u6T+Kfcm48RiSdZsbNmV65UC9UBYZTBTCG2edkeHI5Y88ihfvAz7XSqSkLPdvasCb6+artdic7RNfcRs1+FORlw8+i4O5NYP2L52WmxW1Hk2icEbMOxsN4twDH9W+HJUfjM4nlMF7xk5FxfSmPC/6mHlz+mUrnvSqHYR3A17/2a9QLiL7Wv0x1f+sdtpB3AIWF6ItwjRrWWjLKKAh0W6gEBctYUJLkbV4rHyOekwgFaOiblMBL1r06C3cQCNo4hGLWMe25tqHX5VFosgGLWv2Q4GiUfUbY1QDdAIRkd83ej9+ee8bllVDtXOMr7qgVpHwIcwSF2/KTeo9iSX+u4/5WP9GA24dfQgvbnhPbbPB0RYMlNZY3ilp57gR8XzStt/X0ufR0PA87lerZrT3FL1xasLalnYUFQ813ZI8EpIzL5hUgP4z+SjTUyxi0SsqZgJ3VWsCvLzkEiBnBpYrQa4tn6s9QIj18pKv0CBTL2L5418w+bqXsNqo/fS8Wz1oov07PsHXE64377cihnWbFYO3KVPRvLSjo6noegRudDyiioSq4RANQlFpFk612rlziHVsa/Y+dY+0PHtbRMbkYalboNWsSoD/zXtvYM2v3Inf4rF2i879eL7hX1B6egeq71yPOKRc0ATfofHIc7g+uzPvywZfNqMtpxg3DFNTDefFPMw2TkToo4SelHjQoadY9vlQUH4bpls14WnEtgZNpDcf+Rro/wSblWgv2XdA7J2L1Vddhq+PNAbz563r0NB5CaZPV2Iv+RrNO1SO/asD+KL/EnhGyx2xiWXdNiQGb1Mm7dsaRFsmo+xinK6Nz60nWVD6oaEhdHkT6x0M6bQGJ8EFqSrX482GWzH+g39D9cpX1Mb4kCWYAz6u4aS2bVw7evuzkBe3mFdgktCyLn9ya9I4LOZRbOMEvn2NwdvKzoNo9efAkyFibofuXhJ2C0y59gN49vV78UirWo1BLOu2ZCE7zcjlnqLqhi5ZNzxoqpy6vLKyGtXVocvtWJ/MhKkDzL+mGGbTv0HgW4eO3qCdn/vQnYRqUP8nWSYW4lZ9fdP9mL/uTdXYirsNoTdZc/5FrUdqfJtwUkQl43PtfweXldEIluXABw4VkBsCDop5NNu4HvSfAbJH5at1JhJj84xR+Fz8WNzNOMWQrNvcomADJk4VUX3ApGGFEPR2ZMfIuaYCiYjMk8F7G24XjdIOdJHgCSEcLGS+MrkyUY3yK3hQb1D/L5U/bscOfV3cXWjvidb/DYeEUA/QXYdcj9T4xh9hv3ywCgt2bgbmDGbIr7M4JObWtnG+kz7klJQFDZypQzTXh46Q6D0zOYB9f/kal5RUBcece6swM+cvaJJpGAeIZd0mDaGJJSI6NpeVHTLksiSipch5VLOjvTRljse71PLYsSHXm6zp1yHe7sFEROZ6J61r1m5RIXEUwjf6VjS8sR72x7IYIPekvGJEygIO3jZuqO/LDuK7lDOA3ri9S+OP6N3AETGPZRtHo100R361rxw4uN2Qdslw9u17AJuPjEG1PlLlujHB/LgTWFi3mS3hFuJcA3Uq6jhhU1arfC614wRGnJATv2l7I7x5h9Ac1/DHKMe2yd6ntuAwZuEhNToiIaNZUIlVNL5cLDSaBlP+Sf4dOt58r69b/j8Y8bJj7WbNe1h/ZzV2nC7FL+MYmhikCX1Hxd24R60aGIpt3NDfVwwunYmi/ha8O0yNqNk2LlNwwbqNcRE3rd2SScraxg3NPIVy5wv9zybVmMP50SxMauK4dRvjDm5buyWL1LaNG+rs6KP+AWTnUgds8uDIPKNw2LrNLWgSkkXuXreHYxhHoNos4q510+/XDWEGp/bbKssR38/W5EToLOYMwzBpAKdZGIZh0oCUFPNR/7sosKQDU6bQsAWGYRj34MicYRgmDWAxZxiGSQNYzBmGYdIAFvMMJ6yeecJRtcldtaR7Bt+s/xO+TXLtjFBMteJDHJPCnXtSBL12fYqZiHx39wl8c7VayVAcE/PotnGay1BgX2DJnBK4zGBxwnpsKb596A5c+GATvpdKY+tl/XbgRK1ei10vI8xExto27uJ39+PCTanXYCcSZ8Tc0jauB180qjrmhnrmwFn087eX0Y0mHLWkC3KhaiX+jv34fuMWtSVFKMhDdl8L+qIUKJK13m2abSQUqqlD12vbYOwHXeTLn+EHv+vG329/HRkxcSYCrkwayrnyNlRO6sSeRt2gwgxF8d4zb4WUyg1iHJJ45n+1qb+GRjInDdHQxOPHk2D4KGdSkgtQSNQ36wWtjrgQUIhb/Zn5u0QDXAPvVG33qQY7JhEUNa/GyH2hj6W0yUKcqxVCVKBepw4o0md0HqsPCAGlGWQBL8KwnaA0g34+RkyzP+l9VOtTqMkkI1T8KL1ShYv+4x9DovLgufd69dcJeX6MY0c6v3hmpsr3Pq0lvLCYafYruSiZrx297sSeZ9GG5YHPzt710s/ZcEz1WrB53sb3HPZe6fPyNqO5Z2HgvJyaqUuVFmVRshDIJcrsNkR3YWtxYe9kfP8jtSkAlRO4GVOOv50YR6kkkPicee5ceCf60BpFyBkHkSVix5vKzEZkao0UCHm7L6sQ2nG8b8K5XhuuQp5SzNRt5cjmberCQB7YypJOi0yfxYk+Tay0VERVUBxIiKrHB9MU0twi5Lyvvhrf9B3BxVHSK1RtUX/frWRhV6nywLGOLYRLE0Xar50jNUZ2BZFy5FLw6LNROfOAKYce+UpLvMhkl66WDTCdG3124yycfYz4t9G56qbZokFbbF/ICe2a0GelNoQivkf6eTlZm96+bdwWXPy5H98UP6PWMwvnxTzMNs5MQQk5ER3k8rcJoR3nSGgIEijVyTZi7Hig92QwIjQK0eFmnLJZIzxowGzIbRdMQha6DEbNBls5XxNO95lrmA+WETOKhRBtDkbLVENbCJXxvC+MHQv0dOAitR6G4X37W9sDdd1jHVvWXT/WrCJmKvcqPodATXhrdEGUDVjfIc1lSSx2BVVCz1N3MWTTdtaTZ7PzuAmnNtXjFDWoC2swGYfQFs/rxsJwXtr3yEYg4TAXdXcD+RMjpFq2YhU1AmkalRMOi3l02ziJjMr70dnBUXlioOhZE88RM/IwICIq/cd1todcWSJhaABicL67C9n5QtgKKjCyVxxPj9KNBhOmvDCJiTM+nyPys2SEGhwNshqTQ+pnXxhtHReazKPJ6UilPGIdWzZiU2eqqLMCnmlZOHu0yZWcfyRMryUj+Xg6T6kGvLjTKBV3HrrLUzrh68b3PGMzMm/uoJhHs40LQlF5Tscn+ML+N48ZIiQ8WWOXCMERwfieXoycUSHFaqA7WkRWiJGeAUNkbYGvF2dFRJpLkWxrPc7li2NTx54x6ncRysnKW3rDYmwoLjo9+C+a1bGpEaPPSRpRk9A7HeG6iUwhicsVKS2VDhSMxbd93dHvxtIYh8Tc2jZOoqLy1iNR9jMuMklEzs3w+04C02qQlxddrEcsFLfgFqMsIjEyvwu9h8VdAIpR4B1vEfXHi5aXH+cNH9NMaZHs0uWW47Cj33JbY33sCowrLzTl8d0aieM8ep68Hn5xJ9J6TM+fJwpVq91F27joqTVVT/03a+O2CRwuOCLmMW3jaKx5OUflyUCmQkrFD1imFGrR21uIcR5jTlug28GJJeIIi2hQB6unVESmWv6YjHzHTbWK+o1oeXb5mhaWdP5tlOMNnl+go1AaQFN0qW3XlpBI86OP8H3PPHwb72QSy2M34dQ+s92dXBya9BSYSCRHtOjRvxMRNH3e5rsI/x7qkBafrS1BV5O7xEIjWvQ0VOB62GIv/vgF9bNk4R8GUXsutm3cUnx3eS6+3/Kvat3IMfw/+pLmXo7r4m5IhgcpWc+chyYyTnGh6k84f/kRjHjuZw7demuiaB6SqW0bfdSZoXhpjZu2cVf/Hv99bXfUay2HOOYfxnP3PSGalfTD+dEsDJNCXNS4CT/APHxTtVRtGSrUp6D+1CmowGixzd4dSabism3cpa/j7+LYP3gzgpBTAyJeO52FnODIPAEMz8icbqtrME6thREyySe1iTZ5aJCYJhRpaBN3kviZqQlAg7XaizQJKkj45KVUg2qzfNcSabJQ5sBingA4zcIwjNtwmoVhGCYNSEkxp2j8T5/9H7kwDMMwsUlJMf/LnQ3y/8veqJb/MwzDMNakbJqFhFwXdYZhGMaalBRzFnKGYZj44DQLk5Yk3w7PLtpM2MhuSlSfO/Xs0Kzs7vR9Q3OHGl6kimWdY2Ie3TZOw7TfNNU/MhydO8iCbVj57m5cpVaZ4cF3d6/F33u2p9bY6YIMtLszlI+ORKpY1jkj5pa2cZrzUHC/ZhtXUF6l1XOJAAs5k/Fc/Xv8rbANP3wtUp2RJBLD7k43HHGizPGwIUUs6xJiGxdmE5c7F5VVHrRub4xoUuFGmiUzJw09jbvfvQOT1VoQPz58egYad2tr43/9CZbO1eOONrxzwwJ8TH8+sBuPzezGh2PmYfYo8Zy6IyhaPA+eM/ux5da70CWPfzWOPN2Na9aI7fScwD4XkbMd3bLDEwSO34w8fUYnGS8YCpBJ2zfd8i5shqQqaqVP+w95bqTZteZzi25/Fts2znzs0Jmf5vNWxDEzVT4/YjE24+tGsPDTr00UC0ErIr1m9POIRMjnbboetE/ZHKrz1T/jT3cVhl0njUgWhRaWddevxasPzgLCbO6cJSE5c99JH3JKblGpFb2CYrul2xBH506wBq/dMAWPP70ffVKkxd9yCQo5CfbSud2BfVsOjMVPd2zDeLUbRfMwevcUvNOWi9mLx+L9G7bjxKgSXLVA7UcRfrqGttPzn8SHmIfbfu1UHZQouGqHp0MVC+lHTqmEepzylKJAzwMLYZpZ2qVs48g1aDy8hqqJIxbWAHV6GuJZnEApigLVBUnoa5AVqJeubOeMXFqB7zxtuDhKeiW6bVzosesxIB4byF+HpEik/ZvRHciCmHZ3ujE3fVZqSxgWFoJWaG5KxfAEHhuPIUiEz1tcj5m2+lPUe5IWfrpNIC2hQk4k37LOeTGPZBvX2Yi3tr8PlFO+/BZMOPlW9LrnAhbyxHHVzCKcqFORuKDr0UazWItIe/dL2p99B94MPC4IRfn687fg4xY/PGPMdUsicz+eb2hAQ+jyxnrMV4+Ijrt2eDqnGvQfbS16hfDpfqdkG3eqIRiJn9+1S4h9UGzO71ph+LFrtnLSkYmYZcOuLZbBgkGATbZxVPDLdOxa+EjsVT14ssMzpkikVZ5NyzlH7O4GayHoW4eOY1kYPUM1HLKwWTs67Lw2fd6mxzbhVB01JLpTlHNErZ//hydwT0TPUmdxWMyj2MZNqBIiPgN9jZQzfx9nRZQeqZNUx400CxOJpRg/Bpi8+Dgee1dfIqVl4mTMxGBkH5VX8GB1NapDlzvX4z31iOi4a4en0Y5eQ0qGxEwTrgqMzNPMoIMjOkJuxWUDE9wfltaIgTRYsCCqbRzlsw1Rc+hrS4ckQ6Nj9jJNAEOwEJSGIdMqZMOjebTW2z9vo42hmyTZss5BMY9mG5eP6T8pQP+RPcqY4gscFILuy/XCazGihaPzxHGiTk+/6IshDTMYvuqwkTMfSmQuhMlNOzwbmJyG5KJH8UsweYnmeq/vk9FsHMgIb7AYoubAoqdRyOYPWQHTDe/UdrTazJUnHbqzkg0RpViA05/EcUcQevdBjZ7601GSbFnnkJjHto3LGZWv/hJMKISQd/RFaVpZyB1mdwf6UISSB9R6AC0tMnmxQ8MWF2zDbXNzcaJ5jdpgxVAicx137fAio6VNYuXfA42KzFMbInMSVGN0fJfZLFoy2AhPCp4xP28mt9LcyAyvYYWUMqK7yOUY3bsrQs46Ciq9NtHYZ1FeiLOmyD6Y7qGO1bBSwLKPJnaKLqplHXWAUi33jdaWd0PFETG3to3rwReNIhI37ivPRmvjb6NayHGaxWnW4LW6NkM65RNUqZx416MztE7PQJpFLMYO0JjkYvYa9bw189AnovzXVI7dTVy1w4sBDb+TnZ7q2HIJdICqPLWehlmSh9PGyNy3Dm0kSio6pg5a2RFp5MsmXNxXhG/jNtSgDjut0zNwXmLRO0DJJg4h+5yxpBPQaBV5PEo56dF/na0OTrto/QPi7ktec7uEfiai8ew19KXQftk5rn0ecgRU6PUIeUzk92VhWfeHTsh7rSk/gZtynpL1zEnM9ejcKUHneuZuQEMTq3DaMMyRcQiyQLsJ+OH6Gx3LhQaH3AVTFNKUAsPEaCQwZDQF7ygsLevIyPohzOp5GzWrtqptzuNwB6gzcJqFyXg+uhE/bC/C3+52aqib1nFrZgnyplp1GqcSFRi3mNJEcXR8JgoLy7prH34V9fXuCzmRspE54WSahSNzNxiOkXnIBJJQUsoOz2IiymCQka3ZWk6fVCQj9KTYxsW6HgdxIq9M61eIcG2Sd95BUsWyjtMsCYBt4xiGcRtOszAMw6QBKSnmDMMwTHykpJi7kTNnGIZJZ1I2MudUC8MwjH04Z84wDJMGcJqFGdZQLXaafXp3WKkCF5HOTfqM2cilEGi42n+vV8tDyTUtiAfTeTs2xp1JBI6JeVy2cRYVE3U4Ok8drnr5OFb+2p0a5W4e2zV234VNVJBM1omPzvc+eAI/Wj8ZPwqbFUgzAuux8edqNcFc/sijeHHnM1h1n9pg4OLXxPmKcx7xQeKn5gzL70IK4YyY27GNG9WKPco27uAZ8/5QWMgZu1BtGar0mIh6MMOfQty39Rnch3aElR9hhj0JsI3TKipinxBxvcY528YlFLMtnFbyVhc/uW9MIx5fpiodUgpBOgctgC/keQHatqvHW9vGDe3YRIjtncmSzrjPbIOnQ5HeT4vUiqLvwJPY9Gih5XlLyDJvcfDJxs8sgOH9hJp2ULri29NP4AeNW9QWjXs31uPmKWrFwIDLlmIEReQ3+X6Njb+pxKqd/wS8/a/ib7UzhAtVf8L50Y34UQI8SEO/nwEsvgvadaTPdimqdqwAWroxe664XuI57+AOed21a6b2v9SI0Wv05xusEXUSZO3mJgnKmYeUu/X34CyykWNRro2jc4cIsYV7XFZPDFZNtEKPet9p0348gXrngR8YMTjbODvHvurlO+Ax7jN5iypLPLKxU1tMiPf90yLdKk+c1xmxTfzQNQEgjOdNVnjzsCCQdxfCMfOj4OvKz8yZMsFbV9WgpuY5HBa/h+O/o7+1JREC8vmTJORqJYWI/V0gQTZ+F7ajb+4jhn6SXMwu7sYWSnsV3YFrvnoSWw74MXnm08H9a6jshHbcd9rEtX9Z35c+OC/mYbZxX6CjIwfekmBapWDeNVGd+QkWcqcQP4IFReIHYrB7e2mB9PMsut6p3ORgbePs4SmeH0c53iBkh4e2j0znZXZAMp73GhwRQuL5sf6ZiIbC2GC99JFoMMZivI0GMFOZv+7NcKMRsTzvxNdswXzR9O7HbwMN8RrsNom1iMJ36w19G94PPC7IibrgndvHzeJih7phJcjazU0cFvPItnG+/eZ65hNPinURm/dH6WNxI82SyfT9NfzL7Sq2bONi8/EyLdJfqkaOxDNixfeV+HIVXa2i6aW4qjgXfS3vGSJ7ayhFo41WocUBKz2nqFyPN02C+TzuV7uSyXsbbg83GhHLg0589YrGwiPunPTvAS0R0zLxMGqsZUA5HHFQzKPZxhFkFad1fsoOUH8+sv19Qs6jw9G5cwQjTkLz/XQVW7ZxdtiCxlvVLbe4hfYsti/oXX8lOwBxOy1//I9gtimys4ZyuMEUjXZbHzGVkwz2rMftJsF8EK+oXcnE1cicoD6NwPVQiyndFydnuiP21w1nHBLz2LZxAWTn5wR07jO494fAQu4UKu0x9/ZgvveB2zF7VMitaCCSfhp36x2CBijKtZXuiGQb59SxpfWdXbT0ksnb1JRvt4Hhx065e2cj873oFPHOlBJ3bcQSiRORedTvAqW5RGRupy8mNuJ7uLgo/C4tQdZubuLIaBY5eqUkfOS4T41gMe/3iSg98igWHTfSLDyaRb8tDR35QZ1LInIdRX+LfXVHULQ4dISG8TEC02gWs9CZR304e+zgCAZByGgTDcN7i7Q/MGKFjm2uw05pFeo4045vfu2+A/vRN7ck8PjIoy/MIySijWYJci821t8MfWBLIkaz4L5f4sWbL1MrQY5FGNWSyNEsQaJ9F4ho3zXtOaN3i7/bQkZLyZFU7eZjCkzfowD69TiOt2tWwV0bCXfgeuYJgM0pEo3hBx7SsBS1RPohO09sMU9tkiPmbhDpuxCJxFi7uUmChibGB6dZmKFRiNGGSExCIyLEtoR3BjMpTyKt3dwkJcXcjTQLk0mswWtybHhw9MNja+ahL9LEHxf5ds7aYVub5fycIY4WGUbsfeoebbz/MBZygtMsCYBt4xiGcRtOszAMw6QBKSnmBAl6uqRZOCpnGMZtUlbMGYZhGPuwmDMMw6QBLOYMwzBpAIt5glhW1ojdi8RStkRtYRiGcQ5nhibKeiveoBWcv1UZUwSJd0q/0yRzaGKQCjxx42rktVThgS/VJoZhGAf4nsfjWa/+HjznO3H804/xuVr8Y/8Hrpk4gM87VPXECVWomv03IeC/xYe0f9R1KCv5Eb5s68TftEe4jtfrxWeffabWksUJ4IeLcMOIr7D9dMrU4WMYJg1wJc1y9owxJs/H9J8UoP/IwUAk7jvSiv7cCSjInElmDMMwruKCmOejYFIOfCf1Urj58OT2o1OP0pWBRY7452ExZxiGcQTnxHxClXISugVetKLV4DSkISL0KtqvzJ07gOxR+Wpf5rDH34XsCRWoVOsMwzBO4JyYdzYGnITe+rMHlXdUGWyZcuCtugWePyunoc585IyidEyoI1EG8OUKLGjJw8OLGrHzigq1kWEYZmi4MzSxsx2+gPt+j3Tm7zf5gmqpF5Njf4ZQeUUddk9oxoKdVVj0WZPayjAMMzRcEfOcK2egwN8JnxTrHvhO9iOnpBLTVY7cvD/zOOtvV38xDMM4gzPjzClfXm7wuo41zjzCfrdJjXHmWmS+Eps5KmcYxlFSsp65G7CYMwyTzriTM2eiUIEbJmShy89CzjCMs7CYJwitNstqlOEQfstT+RmGcRhOszAMw6QBHJkzDMOkASzmDMMwaQCLOcMwTBrAYs4wDJMGsJgzDMOkASzmDMMwwx7g/wP+KAR0TxjRTgAAAABJRU5ErkJggg==;" parent="1" vertex="1">
          <mxGeometry x="440" y="1033.5" width="321.23" height="106.5" as="geometry" />
        </mxCell>
        <mxCell id="k3YBJciJK6Rs7I6JHjRl-146" value="" style="shape=image;verticalLabelPosition=bottom;labelBackgroundColor=default;verticalAlign=top;aspect=fixed;imageAspect=0;image=data:image/png,iVBORw0KGgoAAAANSUhEUgAAAXQAAAB6CAYAAACvHqiXAAAAAXNSR0IArs4c6QAAAARnQU1BAACxjwv8YQUAAAAJcEhZcwAADsMAAA7DAcdvqGQAACTHSURBVHhe7Z0NcBRluu//uh8s5oNsAoG4gIEE3CB7+ZCEAvxKlHNI4cfVoN5dS11XKIoFLGuLw0ERisIvdKlTloCUB/buBQotMIGraypUZSV6EChAMZyDZIUEWJJ1QiS5YZLIYdeP+z7db890z0z39GS6Zzozz89qme7O9PR09/z76ed93+d/zQ033PA9UpgxY8bg3Llzco5hGCZ1uVb+yzAMwwxwWNAZhmFSBBZ0hmGYFIEFnWEYJkVgQWcYhkkRWNCTydSNmL50LQbJ2WSQ/Ugdpq+qxvACucBxyvHiXXXYfL2c9QiD5lSL703fnaaNyJbLCW1d4VS5wDPMRyHtb5KvmVAqfl6NvT8vl3NMMolb0Atm/gb3PSynyhnIkssVsmegQlunTTPHy5WM1yGxv2lOfD/UhWXLUeavwaIv5QIvULAWxaXA+a2VOPI8TUvgl6uYSNyKlX+swfpfy9kQ9v9lH9pLlnvupp2OxCfoIytRho/x7q7/LaZ30YQSVIQKtr8J+5X1cjp0Wq5gvIB/JwnaPFz0yQVOcv1GzPtZC6qPbpULPEJBLjK7T6Hb5Dtf3TdPEfrzx+UCz7AV5+kGtGE1rsol3mArFv35GEZM34iFcgmTHBwdWJR104OoGN2G/XWH0UMLKEKfBRzT5pNA8gYWlWP40uUYfDBUGOixeQ6ubBUiWrAR02d1oenMBJSUZihre4+9is/3NSivraDoeVRn6N/qPtO3FjfNz0Xr843IXVWF4bS6+xgaNTEQUepN80uRSa/RgiZdlEoph8lyfwycrcGRnZo40/eQ2xWE7zelWpYj91RlWHSu7XszFgc+52Kt/jhZbzvi/hn2zRrl/eNOBY9FAP3n9okIPuRGRykycb4aq4Fi7djZ/Vx679wi3fdUz1UhdOfEAsN3DvtM2u/J6NrahVHafunPdRw8vr4G946RMzr6PnkNj718QM6pLCyrwxz/q7j/L+HXr7qdc3ivahm2yWWM83AO3TUacKULyMiPkrLIKUVJ3j710X/rMaB0sa189tXOPmTmFck5M4pQotw8KAqvwUXxWQVaXti3Gp/Lz+yVizS0CLXprCqmalpCTAERITGqQkZgXQ36SoU46XPOWeWYkNWCRpNUS6b4+8nyezce68PwWVpeOMq2Q9IltI+KeNkQVbW9oE4VRnEsJsscejCtJCNgOlZySRj0PuVGKf6Ojt3YOfbaH44vUb/nXDVfP2jOYttiTmjnhLYRGXGutf0KPddxsG1ZFaqqXsNxcbc/9yd6rU6hYk682daCzJHlqJDzTOJxTtBFNF46MQu+/wqJxrNLdHn0SrjW9uZBSHRVSKRkI1vBaGSgHVe0yE8vRr4GXOrOwNBJ0fPWVzva5StVqFRRKsLgnL7gtgUXa7Uocyu6hPhFvcHYoaAcQ4UYNQei5q3wkViVzJfzgqxcZPZ04YycDUP3va+eOIXenFxV0KNse9CkCYZ0ib+pRYisfG8U1PSSFEX6fEX8Km09EQWhyF0+zcjzNdjmRU2i3HS2CKPmrEUB3ZSq44+gg+j2y8lzHQvifPeK8z5OzupRbwwcnbuNQ4I+HmWVJcDJd3G0TS4i/IcN+fP9JzNRlkaiTqKrRNFCpAZ3CeHRfmDdXSY/ZDWqt4VP/HhyRwshm49ctKAvEK3rbhZieZcu3UOCFpt4mUA5aF2EG4h6dVRkj5CvItN7piF4DJSnBSlGUbat3MhyJiBHXkTZJeJ7n21MXKOmIffegIsbYsu1+3fSE0epeALZ5E67RTLpuSCuvhEYbegZwSQSBwRdiPnDt6Cg9WPs/7xTLotMT2tb0nLpSUGKbraIKtFUgyt55RhEgtV1wUTQhfDnilirw4bo+i6gjyLTqZOR0VmDLkxGNkX/pjcLh9FFuIFJl/bY7w8+QcSM1bbpmIpnnML5qtiXjG1Bk410izdQ00mojZCiSgWyRgs5b8eFtPqRe4s4BT0o5tF7r+Rh/KwSZLW2INUCk2gMzmsXkbKIvjEBBSUj0NspovVITK1CYY4xqo7G4Hzg0gkR7XaOQG6F1c0idpQ8/ThxE5LzAY43KjnaYqsujRaP35ZE2XZ2RSmgz+sPoC6HWt7cd3wrzte2BPLpiYIaJmtqzLsfmnMAbSJWGzPxcTlvgkWaTf3s7Vh5u1zAuEJcgp510yQ1fTLqFkNf87KRymql10tw+X0YeeHd9Oq2qETRpeJHrKYE/E3tGD42wxiB69MLc0Ugb1ugWnCluwiF47qUFADloTPGFpnfLELQBs9MV3pFUOMp7YNRYK7u24Tz0O3fI1qOnBoP1ShTWS4nQ8TZ04BTPUWYE/OAE+tt+/dTw7FxXeh+9xvqiaJsj3q6aE8Bzgy6Unup6PLmx2twXpy/Elv7rrbB0L4p6aexVep+Bs6HPbadVHt75RfcqvwbC9uWvYdzY+5Vbgg0bX8mfBsLR4rrr60B++W8nrNKe1IGbpwZ+2cz9uF66Ix7XL8R9dOB6r1L8KZcFC+RumvSshLY77aYtty+EtufmoqOP1Vh2f+Ry5wiay323pWLfWbn+tfrUXNPPo6//hhe/EguYxzHuV4uDrCkYJh8xaQEXy5B9d+KMK8stkjSHLWNwch85I6F7SeT9EQd6VnjlpiLc7D5rlK0H4kk5o9jPUX1LOYJwVMR+hdTJ2CD7ytsFJNTDNQIXYk6hVBFxjgQyNuYDzDqF4YBUSrawKPkHTPjQKgwogw+Gujnmmq5LMWmiAOKmMTiOUEnnBR1TrkwDJMueCrlorG0YBinXxiGYWLEk4LOMAzDxI4nBd3pPDrDMEw64DlBZzFnGIbpH54SdBZzhmGY/uMpQU9lMZ81azPeWrhNTmvxiFyeGPprA0fd8eo8Z3nGMI6gDIZaG2e5X/W3VX9/nSds+OIWdEsLOonhb9LRgm7Y7/DERKBxz+P41Zs0rcZOuSoRJMUGjvqLmw5rlzeKwBTj0H3LbUeH6opEGrqeEO74JdbtfQVv/JvTVcOtbeLcgvrQG8sj6EpFO4KL36tnNfb5S/FMHAPfKn6+GGU4hpf3VnqiH358gh7Vgi4P4yt/o/ubNLWgG5qD63rO4GAyHkDisoFzw/JMqzioFdcik4oilMRYl2QgcuOzz+GNJ4AvPD4s4skNtdi9+g45F53ebnGJ26jh70XePPoqjmZX9dsPdVx2hmn9mmQQn6C31ekEuhM+qps5JC8YpY8sQ8llO5UYU5tZueZ96o2pmG14qUSuIErW4q1f/Q6zRIS/Vfubuf9LrrSDeBycUITmCEOyleJcehENiXoDxbtoChNbirDF3yrvkX8TSMvI6NtQ9IsmLYoLN+EIGoFEI9q2rbn1me1KYSmyVMuY9nSg0FTN+ihVBJ1AROZPDD2E3z7+tmW1UXUfY6tKqFYyfBpTxckbc4/8TmKK/SnkDqx5uxYPDD2GN9Z+KJfZ4Mwp9JVWWT4xqfu4HrEcadvfa8HrqK19HU/KWSPqdzK/QTVg5akWFE+IN/XiDVzNoReMLkDP5TyUaekWMWmVGNOBR+aqIrx44nVA1iQslqK8ddYM9Q+EYC+e+BVqlTSMmP7jryi8bTOW6/Wf3vdADhpo/Z4T+Hrk7cb1VkSxgbOi/5ZnMqpXrO1o2LoWieudk6iSobx5iJtCcWkGLjbZeYKItm1rDrz8mGKf9p6IkMkTU7NTq1qWAB+dD9/Git+5E8fFYhNnzpN4vfZfUHppD+b+cg1ikHNBA3zHRiDX4fruznwvG3zZiOasCbgzBYw5nBP0MAs6EakPEZoyMQetWrrloA8Fsx7EeKtbeQqxs1YV6k0nvwZ6TmCTFO75Bw+LtTOwfMoN+PpkXTCf3rQatW3XYfx4KfgKX6Nxj8y5f3UYp3uuQ85QZUV0otnAxUX/Lc8UK7hacT9Tou0JuLQ1NtefZEGpiNra0Gk31jgY2qk3nQQXsapYg921D2DEkd9j7tI/yIWxoZRvDvjChuNtC7oWdPVkIDdmQS/HaKFl7X7v1LBxSNBNLOgEvoN1wUfMtqNo8mchJ00E3Q4dXSTuFhhy74fx6luP49kmORuFaDZwyUJpSCP3fIqua9uVuuNBo2bv8oelczF3buj0ENZ4JYHaT+64ZQKMBoL9wLcarV1Ba0D3oScKeVP9n2S/WIQHtPkNT+KO1bvlDVc8dQi9yZj+L3I+0g24ARdEZDIi2/41uLCMerYsBo44VHTOIRwQdDMLuk70XAYyh+TJeSYS+bn6aHwGfiaeapwiLhs4tyhYi1FjRXQfMHpYIkS9BZlRcrBeIBERejL4cO1D4sa0B+0kekIM+wsZuBRWJOrG/Ac8pd1U/y+VTm7BHm1ePGWo34nmf49jQqz76OlDmY90A4490n7zaCVm790ETO9Pd2D3iFPQrS3ofBd8yJpYFjSFpkbSbB9aQ6L49OQwDv71a1w3sTLYJ72kEpOz/ooGJSXjANFs4BSTaWK+iJKNJWnjhtyaRNQUOa9qdMpXjJ5j8UK13HZ0yD0nY/xtiLXJMBERutZw65pNnCkkkEL8hj6A2rfXwH4fFx3kwpQ7AZEygv23oIv3e9lBXEtZfeiK2Qs19sjebeIS9GgWdNQLRnX6l+tmAUd36VIwac7Bg4uw6eQwzNV6sNw2LJgvdwILGzijvdwcXKmlhkYNJyzPtkrfTHU7gZ4o5PBvWF6HktxjaIypa6TJtm1y4OUtOI6peFr2mkhILxdUYBn1PxcT9bLBmH9WXof2Rz/g61D+7Y+A2bGJs+ZDrPnlXOy5VIrfxtBtMUgDus+Ip/IcOasjHgu6+L9XFK6fjOKeU/ggBcyt2YIu1XHBBo5xETdt4pKJZy3o4jNgoVz6HP+rnjH3cK6XC+NNHLeBY9zBbZu4ZOFtC7p4R1Gf8fchM5saZb0BR+hpgcM2cG5BA5Uscvma1RzDOALVchFPrxv+vDqOkZ7qb6ssS1yfTcmP1FnQGYZhUgROuTAMw6QInhP0v/6yVplSAXo6YBiGSRSeEnRNyG94e67yL8MwDGMfz0XoJOapEqEzDMMkEk8JOos5wzBM/+GUC5NShNV59yxWzj4L8O3T5/HNzXLWIxhq5Ic4RmnrnHMq8j7fPeq9cxS3oJtb0KluRYF1gcm6fC5H6Q4yeyeWflCPKXKWGRh89+hK/KNzF374qVzgBZS69cD5rVoNeq10cgqjGLiYWx1e+8EhfH/Pf+LblCnOZWlB14nTdbIOuq4eOtCLHpMrgcWcSXtu/jP+XtSMH+/4V7nAIxTkIrP7FLpNCjFphigDoa69Y3z5K/zoTx34x0NvwSuDeRwdWJR104OoGN2G/XWayYURiuZLLr8bUmY3iBspl2QOLEreZ6/Dox88jEI5F8SPT9ZNQl29OjfihRNYMEOLP5rx/p2z8Rm9XFSPVZM78MmwmZg2RLyn+iSK581EzuVD2PLAI2hXtn8zTq7rwC0rxHJ6T2CdiygjScklKSQ6nLpRra++YTUgHv0n5+0TwUUVSsaqqy/W2hSawPYbkbuqCsNpWbexcBilFpSCZQrkmqTfF0qjLEehVpwq5L2qhZ7crsS4b5RqWYnvDxSGRedUQ35U56viLC0OfL7xvcZth46qNe635GwNjuy05zWrvH/cqQhF1PSfS6YnIe5R2rmpBoq1UcA2PzfSZ5rvRyRCjrfhfNC6Obii21/tGH++ryjsPKlE+H4W50yry4NPXnPeZcmExOXQs2egZJQPTSZirsFRuhOswI47x+D5dYfQrQi1eK1MQTEn0V4woyOwbsvhfNy9ZycClhjFMzG0fgzeb87GtHn5+PjOXTg/ZCKmzJbrUYy7V9Byev9L+AQz8eALC+Q6l1DK5o4wlN6NyNgq5YeppAaUqozmj83hkFcp/dApraC31hMIcZpc2h6wvms8NgIlAS9VEpsqoFpLSbyqVLMsDhh3qObYGUJoA+u75SqN68vxXU4zrjVJtWSWLlduVupn92F4wCEodNs16BN/G8hnh6RLms6KZSRuNkRVdfWXVTfFsVCrc+oNSaQtIB0ruSQMep9mV0j2gWPn2KqOSS5IvTl604xy5IzLQO+ZBhtiHuF4U3VRW+0rsVgdbsG1X/jxzYRX5HxycU7QwyzojBRMJEejo5alc1nME8eUycU4Xy0jckH7c3VGwRYRd/1m9WX34d2BvwtC0b72/i347JQfOcPsFCnSOc3oJ1s1uFtwRRNBXX5zUL64DXVdCP7IRQQYiE6PNwqhia12+sVa7YdrtNajuu0Xa4MR+dV9+4TgBwXn6r4luh88lZLtQ2aePCZTq8QT0zE0W9WiKcjHt90duEbOhqETYVXsclVBLyjHUMO2t8JHgl+iitegSRMM6RJ/U4sQWfneKCh2gULMFG9Z+nwpbrHV1NHZFfoacKnbWA/fFHJBOpuBoZPkzYO+Z04LWu18Nh1vw9824GI13UwmO26kck1HB5A3Kjzt8tGLeMwND1QLHBJ0cws6BSU670Fbq3V07kbKhYnEAowYBhTOO4dVH2hTpBRNjAwbFYzwTdE5zegnW8bEDbjSpYrBoEm56BNiqwlDbye51kRCdxOwRQu6dOkZEjRVvMoxOBeGOu7TQx/LlZtMcH1YiiMK3+fny1eRMUSmVFdeS/dQflsXPYd+9tWOdiHgwRuPYihytlGXKnIZQ+5dCOsG+7l2uvlkjitXbj50Y8KxGvv7HYtpSjz4OvCDnHxP5NEdEHQzC7ogFJ1ntZ7AaRtngqP0xHG+WkvFaJMuJdMfvmq1kUOPJ0IX4kRuQ/nzxaO3CMr3d2GwiN4G5WWgr8MsaivC4Jw+XLF6NIwBylurj9/apEXz8xXXJwQe8WVUGwNKpNdfdNFzYNJSKr4u9CJD8W4lsS8Z24Imm7nzpENPWMrNiNItwKUTMTwZhD6F0I1PvnSUaE9WCSROQbe2oFOQ0XnTSZP1OljMHaa+Fd0oxsRFcj6AmiIpnOdQl8bZO/HgjGycb1whF1gRT4SuMRqDu0SE6bsAjKtCbq65YA+aMwfDLXpn2EdNoUTLxwduLEreWhehk6jqo+RHdI2nGv2N9BTR0+frjWRXGG80A6vLIaWP6GlyMYZ27YuQwzZBptpG6dswZhWh1xDhB1M/1NiqNaIHsGl1qDxZdbaGCzo1ilIt+IQ4YqnEJehRLeioL/os+9E5p1ycZgV2VDfrUisnUClz5O3PTVIbQgMpFzHpG0Wjko1pK+T7VsxEt4j2d8icu5tQ+iCzVAhUE0WYW9HVVYThOe1GQdcs8yj1YLtHRHSoa57SECq3rUyBRlGZt9ZSMvNzcUkfoftWo5mESUbJ1GirNE7q+bIB13YX49vKWBuXqRFPbQgN7JeYtEZR/37xwSHrQgcG9RvqxaJsj9JP2lNAbJaA0VDbC8RTmHLO7RJ6TMQNtEvXtkLrdTaGSs+o0PMR8jeRv9cCfHdjNn54KkI304/aoDxzjfkFEiXpnqqHToKuRelOiXp6dlt0G+q2WIlLui6QjEPc/Gf89z3Aj9fc5ViPhWB3vGC6gpaVwH63xaQS6E7qwScLOl+3dmDQa7+KkHIhF6qnMbXzPVQt2yaXuYtT14wjcMqFSXs+vQs/binG3x91qhuc2phrZD5yx1o1JHuJcgyfRymjGBpDE8X1b+Ef9+TjR7vDxfzWZ7ajpiaxYk54LkInnEy5cITuBgMxQg8ZZBJKDINs3MdisEp/UCJco7WfNvBIidRDc8cBQgdOOUm083EU53PL1HaGCOcmefsdhGq5fHfKoXPkEJxycZHUFXSGYbwIp1wYhmFSBE8JOsMwDNN/PCXobuTQGYZh0gXPReicdmEYhukfnENnGIZJETjlkqbQUOfkWrVRt7U63UhLN3gF36zxlqMMoRx7ZeQhTcYRm2q5WmdHWjqCVnjMY/Z+XrSBSyZxC7q5BZ2KYb2hLEBkOEpn1FrW8fpTUl/uh/H9kQ34wZdykRdQarykmZVbXNBoyxqs/7WcDcGLNnDJJD5Bt7SgUx2MgutVC7qCWZVq/ZcIsJinE9JEwKE6K6F8X7kU/8Ah/LBui1ziEaJYuan1xyMZKSQZpVyv2DevlQrwoA1cMnHVgi7Mci57Bioqc9C0qy6i0YUbKZe0HFhkVvvCEas2ip6XY/DB0L/VWXoVWNuOKTZiWiXCkFGAZiMADZZq9D3mamYakWzBKNVSiWv+/X+EROfBfe8q0T4n5P1Rth1p/0Lt3qwwtVAzjOYMH+lIn2ttQWeOus+6bcrPogqMdvZb/53Dvisdr5JGNHbOCexXLMfDisfX1+DeMXJGR1+YpZvVyNrHsb7mXow5l9gh+MnC1Ry674IPWRPvk2kWrfJiC7sWuY2rVm1kMhF08THFwnZMMxSOVC9cjVBVezZ97fGAQJAYzR0RTFnUtqNwfsh+33wzvuk+iWtNUi1UPU/73k1nM1BYIfPC0bYtxEsVRlovLeT07kgWkCgqVf1I9CJZuWkRsGJ7FhlzCzpr/DtpX4tQouS/tdoo9kVXcy0Kr0YoEdeRtl90HWWWVjlSyXHbsipUVb2G4+IudO5P9Fqdwh2AvGUDl0ycE/RIFnRtdXh318fALMqf34eRF941r5suYDF3Cnet2shkQkWX6y4YjQzoy9j203YsCqprzaZg1Hy8RhEr/X6b1qfW0H1vxY4td7TOEcd820anH7U+uvbeaDhi5WZmQRcVcgmqwUW6qc6xYYUXK7r9Uq8jG8GEw5jawGEbltGNIA2ic8IhQTexoBtZKYR8ErrrKIf+MXpFtB6p4VTDjZRLeuKuVZtSk5y8MgvKMbhLbE+L1vWWX3HYjllB7kQUqQZ7iYQbRXw/1Do+vKivq318SSCPH23byo0s4EkZi2GxM5ha0NmCanuLJ45S8QRS7U67RVLxkA1cMnFA0M0s6PIw/hcF6Dm5X5pbnMZRIeq+7BKUWPR04SjdGVy1aiP3HRGZZlNE21SDK3li29TYp4/+XYRytMrjvW7S3yyuuWRf5kKx2rbizSmOk2pwIcTe6UjXTZR0kjhdkVJUqYCHbOCSSZyCHt2CLmtInnwlGFkEIfHoNvm9sZg7jbtWbYPz2tF1XDwNYAIKSkY4WF9bzdNrrvV6FNPg0sWW/bTNH7+tsd52uWJhZvAUdamHjvNoefMa+MUTSdNZLZ+eKNSuhzU127HydrnINgfQJuLEMROtPX/M02zUKCo++48rxV6kPnEJurUFXSdO14mIXL9uViaa6t4xtaPjlItzuGrVRo2uOaUiQlXzyf6mdgwfaxX961Hz7spnUgOhtg8hAuPfSTnf4P4FGg8pRaJEmepydQqJOD/9FD/MmYlvYx1wYrntBlw8qLcjk5NDA6MCg42Uni7aU4ATkTQdb+PTBFnS9dKxtSXqcgCYmKini5aSCpwPWxzAf5ymdpcM/DRCr5VobFv2Hs6NuVfcEOimUIPtz4RKs4UNHM7i/9FFmn0jbov5ZjLw4HroLsL10JPH95X/ias3njSxBusPqjAau2uqy4aecaabXkrz6/WouScfx19/DC9+JJc5haUNnOz+mHccrz3xori1pDbO9XJxAE65ME5xTd0G/Agz8U3MhstmUBuDfKlRUI6hYpm9J5N0RaY83BJzCxs45SYiPjtdxJxgCzoXGZgR+kCyaouG2QCjfmIYdKSiDu5J4jGTg4T09nJ6og3yiTRQKkhirNziwYs2cMmEUy4uwikXhmESCadcGIZhUgRPCTrDMAzTfzwl6G7k0BmGYdIFz0XonHZhGIbpH5xDZxiGSRE45cIMSEa8cAKrPjiHRxfJBYlg9k4sFZ9Jn7vqg3pMkYv1UDe6/14jp6cHjumCYb8f5TK0A5W4BT0mCzqLSosaHKV7hylvnsPSF5wamGPEzW27Rv0j2HDnGDy/7hCsClP+4MiL+MmaQvwkbOSitZ2a29z47HN4Y+8rWPaEXKDj2h1if8U+DzqS+F7nA/Ja8CjxCbodC7ohTdgvLeiOXjauD4XFnLFL+3OT8LwQ1x2b5QLGgiI8se0VPIEWmHlUMKmBixZ0aiVGHBRCrtVIZwu6hEJpiQUzguWdzlcHBVBZN6wOzy9coS6gdMKKfHx852z4Qt4XoHmX/Pt1ePSDm3FyXQduWTETyoj4y4ew5YFHQAVm49s2Qdt/GIVyTr9t4zo/Plk3CXX1ykwAivjuLpYzku7DL2HDc0WW+62wqB6r5gXfrD9mAXTf5zO5SINSF99eehE/CvEytW+n5jwUmd/jewHr/1iBZXv/GXjvX8VruTIEpQbO0Dr8ZEekQlfOEnp9BrC4FtTzSMd2ASr3LAFOdWDaDHG+xHvex8PKeVfPmVy/uQ5DV2jvb8b7oefs9pXY/tRUIAHnIRG4nEMPKZXr70QvMpFlUUKOo3SHEMK0YEaHuIDHKJHs89XNKJx3ApWz5XoLtOj3/Wb1B6S8n6bAj4woxt2KqNG6l/AJZuJBG4/NdrY95c2HkaNfpxdcrMAOZfkunJdLDIjvfXcx/XDpb8R+XRbLxI9dFQFCv99iG0NmYnYgDy/EY/Knwc9VjlnkXHms2LdTc54vXiIxlzMeIvq1QKKsvxZ2oXvGs7p2k2xMm9CBLZQCK34Yt3z1ErYc9qNw8rrg+hWVuLRO3e77zeLcv6mtS02cE/QwC7rTaG3NQsnEYIqlYOYtpo7/BIu5U4gfwuxi8SPZHYxGNs8WF3Q2im93KldJ0bEW7WzBZ6f8yBlmrHMSDzkT7sAI+ToWpkymaO1Tw35h2CjdtvT7vQInhZjk/Ew7JuJmob9pbf5U3DTyMcLGTTBduWP1btTW1oZNrztxmc2+Q9x+D+GdwM14BeoNgi2i8XrtZt+MjwN/F+R8dfAJ7rNGcbIN14LgoxfxWIJurInAIUGPbEHnO2Sshz7qgpgXMXqPSbuLGymXdKb7b+EXuKuE/lj6yWcL1Yh/gexREktPFt9X4uIqvllG1QswZUI2uk99qIvwraF0jdqLhSZd2ifZVKzBboNovo4n5apk8uHahzB37tyw6SknLr3ifOSIJyjtOqApYoomFobkWwaVAx0HBN3Mgo4g2zm1QVRpFPXnIdPfbepqTnCU7hzByJNYgBHD5Eu3+KrVtnBaswV1D8jHb/E4nTPPvqi3/61D/F88WisC8CymGSI8ayinG0zXqI/4EdM6yWD/GjxkEM2n8Ae5Kpm4GqET1MYROB9yMqT+YuRyR8T2u1QhTkGPbkEXQGkQHYm2g1pKJhwWc6eQKZAZDwXzv4sewrQhIY+lgYh6HR7VGgl1ULRrK/UxeyceFJHT+UbdD82pbde3WnYRNKKmmqhRLPDjN+TfbaD7wVMu39kI3Z6d2kDCiQjd9FqglJeI0O20zURHXIfzisOf1qhRlOq1r0+NcxJXLxelV8vE8J7lPtmzxbjeJ6L1yL1bNNxIuXAvF+0RNbRHCDU4iQh2CL0W66pPonheaM8N/d8IDL1cjGJn7A3i7LaDPRsEIb1QVHTfLdL6QE8W2jY1kgWPA6VYqDFN3b7xs7sPH0L3jImBv4/cK8PYc8Ksl0sQMny4F1qHl0T0csETv8Ub994gZ4KcjdDbJZG9XIKYXQuE2bWmvmdovXjdHNKLSulh1WLcpsBwHQXQzsc5vFe1DNvk0oEK10N3kWQLunuEC6M30P3IQ24uxaci/ZidJ7qge5vkCLobRLoWIkGDvZ7G1M73ULVsoMu5690WY4NTLkx8FGGoLiJToJ4SYlnCG4gZz3PrM9tRU5M6Yk54StDdSLkw6cQK7FD6jgd7RaxaMRPdkQYHuci301cO2FouV6fH2YtkAHHg5cfU8QApIuYEp1xcJHVTLgzDeBFOuTAMw6QInorQ3YCjZIZh0gVPRegMwzBM/2FBZxiGSRFY0BmGYVIEFnSXWVhWh/r7xVQ2Xy5hGIZxh/gaRZX6LCVBWzl/kzS3CBLr8H+n8UajaDlevGs5ck9VYtGXchHDMIzD/CAnJ2eNfB07V9tw7vPP8IWc/Pn/hFtG9eGLVll1cWQlKqf9XYj4O/iE1g+5DWUTf4Ivm9vwd/UvXOenP/0purvtl3dyh/PAj+/HnYO+wq5LnqnfxzBMiuFoyqX3sj42z8P4XxSg5+TRQETuO9mEnuyRKEifwWgMwzAJw0FBz0PB6Cz4LmhldPOQk92DNi1alyYYWeK/HBZ0hmEYx4lf0EdWSkei+1CCJjTpHItURKReSeulYXQrkDkkT65LH/b725E5shwVcp5hGMZpnB0pSuI+C7LhU5pfiMVafXRV3O9Dzn9p8+7jqZGi129E/fQi9Da9ivv/0iAXMgzDOIOz3RbbWoSQa67+nYrjf4/BZ1RNw9DydKPi59WoH9mI2XsrWcwZhnEFRwU966ZJKPC3wacIdid8F3qQNbEC42XO3Lg+/ej1t8hXDMMwzhNfykVJseg8tKP1Q4+w3m28knKhCH0pNnF0zjCMa3C1xQTBgs4wjNs4m0NnTCjHnSMz0O5nMWcYxj1Y0F1GreWyHGU4hnd42D/DMC7CKReGYZgUgSN0hmGYFIEFnWEYJkVgQWcYhkkRWNAZhmFSBBZ0hmGYFIEFnWEYJkVw3YKOKJj5G5SN6kFT3Ts4neA6LtxtkWGY9AD4/znPQJySIXqlAAAAAElFTkSuQmCC;" parent="1" vertex="1">
          <mxGeometry x="21.509999999999998" y="1033.5" width="324.74" height="106.5" as="geometry" />
        </mxCell>
        <mxCell id="2SO08SePpvfQgSiEd5Xn-2" value="" style="shape=image;verticalLabelPosition=bottom;labelBackgroundColor=default;verticalAlign=top;aspect=fixed;imageAspect=0;image=data:image/png,iVBORw0KGgoAAAANSUhEUgAAAZgAAAFECAYAAAAaxygBAAAAAXNSR0IArs4c6QAAAARnQU1BAACxjwv8YQUAAAAJcEhZcwAADsMAAA7DAcdvqGQAAEU3SURBVHhe7b0PbBznnd/9lWQnLWhSomnsmSrlZCW95Mmi4ry0LCG0KMVk2jeCQbIXxjHqQ0Q5Zya4Q6ISLZtAEBoYaQUhKXvgKekFObq1qENzcC68lBQMXXEWfRItGZYVIj7KIqjXElOJJ6aEacqkiMax/vR5nnlmdmZ2Z3dmd2f/fj/BxDszu8PdmdHznd/veZ7fd9WnPvWpeygjotEoZmZm9BohhJCwWK3/SwghhGQVCkzJ8QI+/e9PYue3vodP6i1lxZ5DOD7cj269SjKhG/3DwxjWy/GDLXq7QJ1nsb3f60y34NDLsc96vy8TjL/Rv1+vkoIjfYGp+hxan/0aOvd+DpV6k6JuLzrldrU8g/oqvd1FbbPxnh11egMhnoTZkLCR8qK7vwPRmVF0dXWpZd+Rcb0nNS0He9CECQzoz3b1Dek9+aW73yWUJFTSFJga1D+5Bbeuz+l1k3rseBI4/8p/w4hYxi4CW/buRa3eayFEaMfaOcwt6XWSRV7Cr//DXrz1w+/iI72FkOC0oK4GmLnoIQynD2NfEuHYWFOBlctn4F+SSCmSVid/5dZn0PrILMYm16F1202MnXwTy3qfAxnl7K3D7Mm/xmVLTIQIPbsLODuCm9s6sW7yv+H8rN6VA/LfyS9TWF34Pb2Gq8N467+/pFcETT/Czqc36RXg1ts/wLt/+7peAz75xZ/js09U6DXgf7+6F7+eMF479rmPK3B/VqHfJ/dtxn/B9ZpvY8tGY5f92KmR6RTxxKvXsCSeXp8/LBoYGSH0AJfn0bRd7BVPxKPoQId8eaILfcf0+z2QT5zyvW5WLgzEnqj392O43f6mGYx29cFs+loOHkfvdvN3r2Di6D4cPp3esf1859wgz2svmqwMQew3y9/bg2nMb28S10NsPwF0yN8goxHfkYRxPZHg99rPm+NcWRjfreFyon3u8x67Hv5w3WcC+zXxutbO7TYc58R17ATnyzgOAn7n8iV4BCNE44lGYOqsh6ikoLZ5F2qvv5FTUSkkqv7ws/hARhhqGcb/3tiFTzfpnVJ8nn4Yv37J3L/XIS6o/R42P/EbTFmfdwrAR3/7ZbXtV2+v6C021GdhHXvqqth28238yiZCDzzxbWxY+IF1jN970n8/jkynRERjY6ZTupS4mFSgqX4RA0cnsBLtQNvCAAYurCDamDovP9QnjzeACfGAIhuSuHSN7Atoj4h/8Hqf/BvGHgOxvxOD1ucGLggN339INIE+ji0bnMZJa3vXiRlE2wujf0eloBZi6asum6BKKrY3YPGo/G1RdOwxz/221N/d7FvRDW203exHif1u47x1YTTuOU020PK9hvBVbO/Vnz2OQ3uMd8gGuqMmljpT1+OA33Mqhct+nxnXziLJtR4/sk9tk99ZiqL5HruAdPdvw6S5vWsUM+JeZeo0MwILTG3jFuDimC0i8cJIo1Vefyf2XiFOWzbM4fy5y3pD+bH037+J2Kl7CR+Ihr4i8pRel1Tgocfs62424UFLkPzzyccexQM3L+GmzmouTV0B1j3oFBARzZiC9tE7l3DLvT8FFfW71T/mRMycNgVnBqcSPNWmS3e7OBkXBr2fJsXf7bP9vfFz01ipqoYO0lIwhD77E+yxSfHtI6jTjWVGtL6In736Kl51Lz/8I/0GHyQTjJlT1jmJnXsfmKkv2cCK1ZjwOgUsMeJ8qfcaDX+sITef9rvRKaII+/cZPzKoRHCbn4Z8f6fq1xn0un8yutZSOO2/cQiT4gREap13tCFUjF78EkxgVN/JFN5+d0Fv8Ka2uRNbMIUxS0x0v83Zk3D33JQVMgUmR3npxUxHGbwkIoy3ARFJGPt/BMcYibnv4t1Xr+D3ntafDzBS7KP53whBeRTrdIdY1ZZNQlB+ZRO7zBjqE42K+Offq55YC6nT3OjEt0YzHWgSEu4fmc6xPutKzWTE2Iv4ytNP42n38q3/qt+QHNnQjc6I6ER/t+LpuF7BYmgZ6syutUqHmp8VS6L0KQlGIIGpfUS0TlVbjNFjcnkytm4fDSZHiO2QkYq9b6aqHnWitax90hxhJgTIXHePRCtVar+HrU9vUn0bZopLparsSBHR+3719sPY4haZiW/GPvvBE/isX5GZ+wC3xD+3T79gCtsVTLn6aDJjHIef10+7RycQaS8Mkenu73WOZnKn0JKg0jlR2behP6uf6rNCFiIYM1Ulv9f89t4iEZkKVDsa7o2odtzg6ZPJtTZSrVFHqjQ+BUiCEkhg5s4Zo8Os5ayIRZZElCJem30qlri84opUlt5U74t9fgRT4vF57qx47TVIoCRZwf8xT4yIZpwRjBMVdSThowXf/3xQ1foE8LbRv2Is9lRdljk9i3n9MjuMY1YEzYn6bK6KcxBLzXWjP9FT68KsTsmIJ9z97v3ex1YsLcJ8BuiWw3b164zJMIJxchWLoV3MbGKknaKiMTelsOVgG6JLExjxM3BiZhErVQ3YrVOUSlDc4pT0WrvvFze26EpEM4kiGPnQIaMb9s34I3gnfzJUH4t8UYsdZpQjl+Z6tbvsEdHJ9auxKGLnkx/g1/YIxpU+26k6/GNCIEd62fd/Vnb4W8ORn8LvfcvcLv5Zbewy3veHL6i9S2P21Ju5uKKjtDE7d83F6IjN5miroT6j09X8G+bTusrhW6m5NiwedUYZQydk57b5uV5UX45/qvU+9inMVMXSfm0LE9mLYDLClQqSneoLowlHbGWf2LWWDbDZke83epJR1+hC7Jz2bp/HqGNASBJOH8agGhRgfFYOFrFHGX6utfN+EYs5AVQc+9RMhXXs4T2LmEhwscfnjEcnPwNUSJrDlIuZcq1FVvWHJ9UIMfuoNLltC+KHMxNCPJCpNBElz9uGRhNvshvBkALlKfzTB/VLixfw4Ebg1sIVvU4I8UZHjRSXQDCCKRfkAIMXnsADelXinsSZe2S6JUm/RqCJgcQPnhMOFUEnPWYT3gulCAWGEEJIKDBFRgghJBQoMIQQQkKBAkMIISQUKDCEEEJCgQJDCCEkFCgwhBBCQiH9YcrKTGwLKmUtMnstMWmZLItgKpYxlcBszOFw6f58yHCYMiGE5IY0BaYG9Xs7se7DOdSutTtaSgHZhOu60KVyvmy8ZSt86dyfDygwhBCSG9JKkVVubVVeL1PX9AaLy44qysvXZ4XwPIDKLJXjJoQQUjwEF5gMLZMJIYSUB4EFJiPLZIW9lP8zqGd0QwghJUkwgcnIMlkiU2g207Gzt7BlL0WGEEJKkUACk5FlciJmr+Sts58QQki4ZFZNWQ5J3mYfRWYTFx8jxdR7RUTEYcqEEFJ6ZFdgzLkxaqeN629gRKbKHHNkBOb2HEKBIYSQ3EA/GEIIIaGQ1jwYQgghJBUUGEIIIaFAgSGEEBIKFBhCCCGhQIEhhBASChQYQgghoUCBIYQQEgoUGEIIIaHAiZZ5ouXgcfRur9BrMxjt6sOQXjP3zZzoQt8xvdFBN/qHOxDVaysXBrDvyLheI4SQwiB9gUnLMtnAcLrUBWXK0TJ5zyEcP9CA6aP7cPi03mYjlcB09w+jA6Po6jMliRBCCo80U2SG18ut6+5ylvXY8SSskvxjF4Ete/c6PPhlgcvWR2YxZpbsz6G4FAzRalQsTeNMAnGRjB/Zh64ur+ilBXU1Iua5SHEhhBQ2aQlM2pbJIurZkuPqyYVIS21Ev3IjU1/DGFbLcRzaozc72IhqT/8c++fF8vIhIUeEEJIfgqfIVGqsDrMy9VUVX67fgf29Szo1tnYWU2u3YItuJJcvjmDMh4FZtshnikyltsyOExvxfShSKNqwaE+hqbRaE8xemxhm/00LDr3ci4bL5rGM9aYFptIIIfkhcASTiWXyA2srgQ11wFkzPTYFNHY6zMpKmaG+LpX6GriwAixNYEC8luu+OuhPH8Y+9f5RISlCVk4Yn+0yBwfs70RT1QxOWccax+FjE1iJbhNyRQghuSeYwGRsmSwjFps4Lb2JqetSeGr0BpIRS4u4ql8SQki+CSQwmVom3/pwGZUUk/CoqsZG/VIhBxPol4QQkmsCCczcOZ3aMpezc8YwY/H6/KzxnmSWyarTf8NjqLd3+m9Yxuz13PXBlCzHJjGDKNoOmt36LTi0J4qVCyPW/BpCCMklubVMlviYJxMmhTAPRs1zqZ/GwPOH4eh92d+P4Xb3KIAVTDjmyxiTLJFwjoxzAiZm2MFPCMkfnMlPCCEkFNKaB0MIIYSkggJDCCEkFCgwhBBCQoECQwghJBQoMIQQQkKBAkMIISQUKDCEEEJCgQJDCCEkFCgwBctTOPyFk/jxer1KCCFFRk4tk406ZcZrO3NnY7XMwib/M/mlT0sPcGwfDkN6vFTjlM2P3+QbO07iyxjGPz//kt5CCCHFRZoRTHqWyXHFMk9OCQlaxs0c1iIrDOYxa9YWS1Rif/2P8OV/dgU/p7gQQoqYtAQmbctkF5Ub6hyGZKWOLHI5PNyLpqooOqSlsXSorGpCr3jdv1+/SabGHt2E9976Jn6itxBCSDESXGCqPocnGoGps5n66tdjizzORachWSkzfmQfuo5OYEW7WSpnS1nxWLy2KiNXPoVHK6/gVzf0OiGEFCmBBSYTy2Q7lVsfQ20ZRS+J2FhTgZUFV4Ks8kE8sPwB/n+9SgghxUowgcmCZbKBjF4qMXetfKIXo3PfmRbriAIV23sx/PIhsdegteph/YoQQoqbQAKTqWWyiYpelqYwlaORY4XBOA4/b0+LDWBCRG8zJ7rQZTMeG1v6jX5FCCHFTSCBydQy2UBHL5OZ9uEUL7G02AoW3SOmlz/ArcoH8f/oVUIIKVaCd/InQ3nsyxe12GFGOXJprle7JbXNu8oweokh+130K1QnGl23/DouLW/CF3//Kb2BEEKKE1omFyLrf4S/2wn8/BccqkwIKV6yG8GQ7HDjm/j5P27Cl3e8oDcQQkjxQYEpUH5y/gc4X9XFWmSEkKKFKTJCCCGhwAiGEEJIKFBgcoiMngghpFygwBBCCAkFCgwhhJBQoMAQQggJBQoMIbng8dfw296foqyGbOaBu1/9NW4/rldI3smpZbKkcuszaG2s1GviHRdHMOajOnO2yOcw5YIdIr2/H8N7FjFgK7qpkNsbJ9HVdxWHXpZGaXq7ZuXCAPYdGVdGar3bzRI4BrKIp+Fx043+4Q4kGt6g3gPxN9qBUbtttPy77m3FzPqf4uOvN2L1X3wGa3z5/CQ4Z9JDyH199kjL7SZUuPYluh4K1/u6+42K3rFrlQpZEbwX1afd77fZgEfltXNf7Rl9LVP8LnXdE94p6vNX5e+qn47/rfZtgc81CZM0I5j0LJOl+LQ+MquKY5qWyWhsRb2H4yXJIVXV2KhfxmNUgjYrQEthkSZpUlwstIma3N51YgbRdtOlcwh9eruqJG17n79GrdjpwZ2vNANv/TBwg6cqbatzJc47mtBrs3WQtDQ3ABdGxb4G7N6jNwqUsZ363Khomm3HsTXMUsS2RUXDLa9VY7fe5o9Irf1buDjWZ/wtcVxDGOTfdj4oeP4u87Ou+8z9+aTceA73n5jHx19htFgIpCUw6VomV659APhwIRbtLC3gln5J8sjMIkTTH0dLbUS/CohoKKSYRMUTdpKmqDx4/Fl8jHO47+Sg3mAin+b70S2jEGmfLReXgMSQAi/EoqoJnZa1dgt211dgfm4IZy4DDc0Bz/T+bYguLeLqsUnMRLeJb+OHccwmTDZ4FG5NSaLflQV++QruRzPuMFWWd4ILTAaWyUpwNuxC69YatW5UVp7FXBm7WhYcMk3RH2tu4hw3fTI+N58iKioP7j66GWumX8cqve4kio4D1Thle5rvOeglFFexKP6dWNHDnt1oqJrBpIgC5bmuqN8dSMy7G6NYuXxGNPHyuFFsC9zAy7TYcRyyIqd5zJ7WLwPh+l1ZYRCrp5dw+9Hv63WSLwILTEaWyUtvYuyVEcw+0qnK+O/AGxjxMCUjOeT0rGgeIqgTjYVseOD7iTYJHlFRYkRDaz7FyyVhHr4Y6cE98Sy1at4dvZisYOKomf4ZF5HICipqvCTZGT3I9FjFzKTxWRmFVDnTZMmR6bEVTJ+TCTPj7/pNk11d0N9RCVxF8MgpDq+oyAPtBmveKwn7mgSr5sUDTs0GpsnyTDCBydQyWQ4MeLYT6yZlH8wIptbuEkJj66MheaYFdeI5evRCRD3RSu+a+TlbP0sQotVI/E8/EWauXi8qf18KbMa9dfqlX2rqPCIRcW2MwF9gpMdmLpo9E0OYnAnQ2Kv02DTO6Ihj/Nw0VoI+VIjrO39iFPMyctpTh4hMt+ldwbD/Lh/Y+/rEovr1EiGiujXrIhSYPBNIYDK1TJbRT+X1N7T75QIunxQis1SLLTplRvKFkaZAdDeqF85gSDQ4kYAdv25UJJR2o1MqvIdVN/VLvyzMimf6BKiIAYbg69dyIIX5JC9Hg/lNk6lrY48E5Eg0EUX6SZOp1KeguxGYPCaEbUFETpkEnPbflU1qI7hzc94jNUlyRSCByYpl8toaWIOUq+pRJ26uWx/mbphyuSOHpspGxRjhZUc8Ae9pEBdZ/EOXKTPxRLtN7wmKHDraEV3BxDH7qKVyZBCrxK19L9Kj15Ow5xB6ttujEjvd6JciMDNqjLyT0aHrSb7r6ARWfKXJjIghNpLLWEZF0Oh7NFlNG9pqjIeHq+L3NTRWG9sD4/pdWeReJCLE+nq8wJiDKjwHVJBsEryTPxkpLJPnzomIBbYIaO8W3DobEyeSXyqq5lWnsZFyiSIqRGJRZatkh64UJmMuTMX2XiVSx+0d0rYn4t7t8xjt2ofDaXX6lharL72HOzufxV297qQCTQeMcyajiHnXfJRYhNKBiByy22eIT6yD3sbpM5he8pEmsw0OsDN0USqMzzRZVQWg/75Mr4kbBRVm5CUHicjvrPrRzL61fsdxvX5X9ujBXREW3XfpO3rdhjpP4r8cgJIT6AeTQ+hFU4704E7vIdydPoz7HUOV5TDlNiwepRBnHVk1oWUenxx4LmGKTE0wrbFN8CShkd0IhhDiYhBrfnYO2Pkt3KE7afjImfztEdz/swTioqMrikvuYASTQxjBlDFxT9WFGcGY5WMSY5Z8KVxkLbK7lz6N+36pN5C8QoHJIRQYQkg5wRQZIYSQUKDAEEIICQUKDCGEkFCgwBBCCAkFCgwhhJBQoMAQkgvSsEym/S8pdvJsmZykZllIcJhyIuScjOQWvYnmR5iWyZZ1r94usfYlOrZGWfWWs2Xy83+CP+/4lF5Zxtt/9h/x8t/rVQntf0mRk2YEk4FlcuMt2/4HsGPv52LFL0leSWXRG7OwNRaHZbLyNjH3jWJ+e6+uVUbL5MSWya3o6xAi+gffwZ+I5c/eBp7413+CL+q9Ctr/kiInLYFJzzJZiNK2WixfPB/b/+47mKuqQ63aTwqHTK1shzAixCSoy2JJ4mmZPIb+P/hz/K1emz53BUt4ELWf1xtMaP9LipjgApOBZbLEWZp/ATeXKrGOAlOAhGFlW34kt0z2A+1/SfESWGDSt0xewNy1ZdRui6XEVCREcSlQ4q1szTL95hLvKaMxvU1O+y0oWK6WySab8Pzzn0XVzDlnH4yG9r+kWAkmMBlaJi+/O+bwg3kC72BqaVlEMfoNpICIt7J198E4+1CSe5skp7wtk7/4p18X/xZ+hT/7N2N6iwva/5IiJZDAZGqZbNgkxxwxx94F1lXdwjIFpvAIbGVr7+Qvlw78VKS2TP7in34fHdH/hdHuv8K03hYH7X9JkRJIYLJimWxRjx3P7gLO5naYcrnjbZlsJzwr2/IiuWWyJS62zv5EeNr/ElLgBO/kT0YKy2Q1R8ba/hhuimiGdsmFQyorW3cfjMMymSTE0zL58/8Kn1ddTZ9Cxy++jz83lz9tVbtjJLH/JaTAoR9MDqEfTDniZZnskxT2v4QUMtmNYAghLjKwTE5m/0tIEUCBISRs0pyRf7etGatOsEwMKV6YIsshTJERQsoJRjCEEEJCgQKTQxi9EELKCQoMIYSQUKDAEEIICQUKDCGEkFDgKLJcU/k9/GIn8MPXvguP0oZFTcvB4+jdbnpbyiKWMVdKc59yskxUgkY5WZqVlGVts304fFqvEkKKjixbJtegfm+nrQR/vGVyKkvlsCmEocLf2HESX8Yw/vn5l/SWEkFZJzdg2kMYkguMYa2MQFWYCSGFTJopMi/LZGe15JGzt5yWyVKUnnxAiIqxP85SuUz4yfkf4HxVF34cdGZ3oROtRsXSNM54RB3jR/Z5V1reU4eIiHgmKS6ElAxpCYy3ZbKLpZuOcv3SrCxmQKYtk4W8bLCV+i8PXsehS1ew+dHvwV3aMFRkCiphsUoZPfTjkIgwjO3dOPSyfM9xHNqj3+KDltqIfuVGHt/8ux7HlOKkX8YhIyPr82Lp79Y7CCGFTHCBCWCZXCmUo/L6FV2OvwaVa4G5a6YBmUyn7VLRywNrXc5W5cCNX+G9ykfRZtp7ho5o5NsjDs+WfUfsXi9RNNWcUmZfFds7UH26C6MzFWhoTl0x2bQAUH0vVU3o1UIQE7Ah9Km/OSpiFCcybaZEQ/W92JwtLRExrAOkgZnxvcUxoh2s5ExIERBYYFJbJkufF6Mkf6sUoosxR0sT6RnT+Wwn6q6NYOzishCeMhQYXMEHyxV4MGcCI0kmGCuYOKG745cmMBIgVTXUZzT+AxdW1GcHEgpYYsy0meFiaXO21FYBLQfbEHV8HyFWUgTrd4MSQ0hhE0xgfFkmX8Z5sw/mlXewbq/L7fLJr2HLhyNGH4w4zgNrK7H8YWoL5tLjdVwTIv1w1VN6PWxEw3x0ArA8XfpFbFAkLMz69PYnhBQSgQTGr2VyjMu4ft1MgS0IIRH/uf6GEhYDI212qywF5ik8UgX8Zul1vZ4DTh/GPh0hDFyIoKNYRKamzhGtePf1EEIKiUAC48cy2YFyuFzG7HVDQOauifdv2BUTo7od2FI1h+tl6Wq5CQ9WruCDVB1ZITE+N69fFTbj56axUtWETsviuRudcqizEEtGNYQUNsE7+ZMS639Ry946zNrnucyeVKIk02RGBAQf3v0lyvrPYvPyJZzKlcC4RpANqw7/2CTIULH+dgeiqEDTAfna5wg1GXUdnUDEZefMuTKEFD6cyZ8XnsLhL3wbD17aiz+mmRQhpETJcgRD/PCNHd/GjqVhigshpKRhBJNriq4WmVHCxawQFsfMqDWkmBBC7FBgCCGEhAJTZIQQQkKBAkMIISQUKDCEEEJCgQJDCCEkFCgwhBBCQoECk0daf//n+LsdL+g1QggpLXJvmSyo3PoMWhsrMXfWo4ZZiBTMMOX1P8Lf7QR+/otv4id6EyGElBJpRjBpWiYrAfoansBsedYfs3gBP965Ce+9RXEhhJQuaQlMupbJ8nPrJg0fmHKm9fe/iM3/yFIxhJDSJrjApG2ZLD34/zrnKbHC4ym01VXgvdmX9DohhJQmgQUmG5bJ5U1+fWAIISRXBBOYLFgmlz2Vj+Bh/ZIQQkqZQAKTmWUyUSxfw2/0S0IIKWUCCUymlslEcgUfLFfgwUq9SgghJUpm5frr9qJz203bPBjZ/7LLNizZNQ9Gvl9GPS5yOR+mEObByAmWB+su4UjReMIQQkhw6AeTF17Aj/+gC3iLlsmEkNIl+DBlkgVewh+/dQWbd/4I39BbCCGk1KDA5Isb38SRqYfxZdYiI4SUKEyREUIICQVGMIQQQkKBApNDZPRECCHlAgWGEEJIKFBgCCGEhAIFhhBCSChQYIgvWg4ex/DwsLH0d+utJt3oF9v79+tVEph7e/8Bv/3q9/ValthzCMcTXq8wMe4F4145jkN79GaNuo9ePoQWvR7P93H7xddwV6+R4iZ9gZGWybLg5d7PIVZWy3CsVIUw1fIM6i37ZIPaZtt+x2dJITN+ZB+6urowcGFFbyFZ4/HX8NHOeXziL7+jNxQzQ+gT90lX1yjSmwzwHax5K4Lf9f4UZTV/okRJU2DStEyW5f7xht4/gilsQWtzvd5JSDkintjbN+O+E1/Ifjrh9GHsk41935DeUBysOvkZfGKhGbf39ugtpFhJ655O1zIZsycxcs40IFvA3DWxd20No5iCwZ7eEEvSVEYSzNRMup8vI+6JB7DbV17Bfb/UG2w40pL2dJM+v8cPxs5ud798T7+4gvZ1Y7G/z2J/v7Xf8z1JcH639NOj5vd0f371qXPAzmeZKityggtMBpbJpJCR4tKByIUBlQpTy/OHMa73+kY2fgeaMH8izc+XFT2421CF+y4lSI2J89iJQetaDFwAmvZrwZaRyYkZVGzvMURHiEVHdAajXX0wY5WhPuNzownzVOJat0cwcVRfZ7HsO+L/Sklx6d0+L/5e7PN9x/TOAEhx6aiZwECiz994Hatvbsbdx/U6KUoCC0zWLJOVUFVibjK1UJHwaTnYhujSBAYDNDRx1MbEJZ0Gp/zYjHvrlrAq0ROYEJE+27UYPzeNlapqbNTrONZniE77ISEyUcyciImLPyrQ0JxOfNmNzu0Vafw9J7tNcfF8CBnEqgUR4UWYJitmgglM1iyThQjtlUI1kjMfGJKcjTUVwMJsRhFHdHuTaLZmMElx8cf6DUk6sltw6OVYCmpYCLe4Qg7GjwxioqYJTQujAQV9CH1HJ4Dtvfr4sdRaSvbUIYIVLGZSzq9KfOcosHL5TNL7bdX7S7jz0Ga9RoqRQAKTHctkbUp2/Q2MJRUqkkuuLmQ+OmxGRC6jM1F0sO/FHzeuY5V+6aa7vxdNMNJHKg0lBMF9heR7Gi6PCpHpCNyHYg0AEMvAhQg6/IrM6VnM65dpIyLlAS1wyfpu7j1UhTXvv6fXSDESSGAyt0yOiUuss5/kEq9OVZWCiXYk/Qfvh6G+AdEsNqE3p3MvipX3sOpmFe7Fm7waWBGliGb2uyIY3e9y6sgQDh+TjbXuj0mD8bkgkjGEyZmKWH9Quuh+pGh7/FwZgx7cE8+lq+YH9boNc4AC77GCJ6eWyZVbn0FrY/yYsXKxTC4EqwDVsRo1oo24tIruoLcaMvmkqXLkMl0jnqhdc5owM6qHwBoDBGAd01gXv9bR8UzikRMsP2q4iE8OPOeMZlzXYubCBCLbq3FKnk/ZwLbLfpfYNTSu6womju7D4dPm+XeycmHA6MzXn49hfk6v+sC8j0ys7xJ3bEns+GqAQP201fdiDBioiH03k/U/xcdfj2DNi4mGb+vfZ92fpFChH0wOKQSBIYWGnLn+rBDnTyccqlyu3P3qr3Hn/cO4/2SCCMZ84FkwH3BIoRJ4FBkhJJt8B/edeA+321kexURGdb+rOYf7EoiLMf+G4lIsMILJIYxgiBcqVfbQSfyTPJeLcae+nOQi5SkjusexOmFqjBQbFJgcQoEhhJQTfEgghBASChQYQgghoUCBIYQQEgoUGEIIIaFAgSGEEBIKFBhCCoDSsUzOL3KC5m2W+C8Y0heYdCyTzc+YCy2TSwij+m+mtczKkpKyTPaBLCcTUkFUaVR2r/0fcGe93kDySpoCk6Zl8tKbqjCmuf/8h7RMJuUOLZOzyo3ncP+JeXz8FXr6FwJpTbRURSsfmcXY5Dq0OopdupARy951mHrlZEJXS3Wcte/ktLIyJ1p6IJ8q9yxi4BjQYxZZtIpZStwFL2Ozur1mf8cVMEyIPG4PcOwUqg+YBRrLp0hmshn8ZiFIA1tBSl0IE7bza1yDxNck4XVwFaX0d60kxn1QfboLk43m33AVy/Q6truYqoXf6y2LXG7D5NFFtJnHSVjwsgd3eg/h3jjru+Wb4A9NyokyG5bJNah9pBJz11i2v2CoakLvAVmxV/uPRNusUuotB3uM+k/aQ6TL1iAY9rwDmFgSTcUJc38QG94KNB1ow6Ky8JXHiaItqL9JUVKclsmSaPsw2hYMe+1RWb6/3eznSXJsM6IS310Jg95vv5dSE0WHeY92jWJG3LOdcWnZQayeXsLtR7Pcp0UCE1hgMrZMliX+1f5ObMEUpuhoWUDIJ1H9j/30GUwvVaA69iAq/m1vE81HOMycMJ+Ax3Hm8goqaixz4BKmGC2TNSK6NYVj6KIQjJo6W59KhsdOiu0eFf8/Kf50pDb+b62anxffKZljKMkFwQQmG5bJsyetPpgRmWJ71tZHQ/LL0jTOWJ4g4zj8fMxvZPzIPsOtUlnsDgd3UCTxFKNlsmbmok3OhNh1WWmqzI+dFebmsWZdhAKTZwIJTHYsk23MyvTZA6h0G1mRgsRMu8jUxLxoQCgyGVKMlsl+CPPYfqmN4M7Nec/zS3JDIIHJ3DLZSeXWx1C7NIs5z3QbyTay81c+WWY2nPgqFuOu2ThmxWWONublebVIKUbL5GAkPPbMIlaqGrA7ze/rh3uRiDh/CQTcnBsU0jBp4iR4J39SYv0vxjyXOszaLJNj/S/GokaieY1AIwWEK12jDZ/cHcNDfaOYiXZY72OEkwrdGd0SP6R26IQcZGGey15UX7ZFMHqUltXvIiKGU7Kj/YDpby9HWxnXQI7yqtDpKut6yM/r/WpRnfJB+3A88HNs8X0HZf/RAfN92Y5wkgyeUH2L4r/2/iwSGvSDySH0gyHx0DI56zz+Gn7bMo9PDjyXMEWmhnDX0M8/F2Q5giGEBIOWyVll/U/xsYia7v9ZAnHR0RXFJXcwgskh5RjBeE3CNCifCZWpoGWyTOuZE20T4Jj0642sRXb3EqPBQoECk0OYIiOElBNMkRFCCAkFCgwhhJBQoMAQQggJBQoMIYSQUKDAEEIICQWOIsshHEWWAj1D3cDlMeKJfXhrgs84PEgKd1h0foYpG94ulsePz6HAyb1mUlwPAYcSlw/pC4wyE9uCSlmLzCr3Ii2TO7HFKl65jCl7qRgbtc1fw44NwNxZjzpmIUGBKVSMhgknYhWcgyE/Lz1lPERJCY30ESlAgZEzz9uBT7wYgqtlEpShWf102pMOpdBIT5jEXjJJroecDPn1Rqz+i89gzQ29jZQkad7PaVomm6iy/3Msckli7KlDREQYk2mJSzETomVyCjbWVGDl8pncz2inrXHZkNY9Xbm11TALu6Y3eLF0M0Ehy3rseLIWc5PncVNvIflHPs3KYojyqdQsVGivuCy3y/3yfYn2G0+ssc8GLnQZrY7zOzGQxzWLOBqY36UUuCcewG5feSVhush+rh3nW6YS+w/pAqTi3OxPp0JwC+o8XDTU3+23lZ9UFYizXJDyl6/gfjTjzuN6nZQkwQUmQ8vk2uZdqL3+Rk7TYsQfsuquaYMrbW2j7c5GRe7vrTmlfT5WEBUNj9GgyVx+ByIX9Ge1X4wfSwCrEVV9LzFDM0cDV7Ikt0zu2T6PUe2rIhdH6jDapHzxDbtimfqT9sF+SuCbDwJG34tZaVkJVYjl8+OhrXE5EFhgMrJMVv4wczh/jj78BYnNBhfHJjGDCOrsjY70UdedwA4L3z270YAJDFq5+CGMSAHy4Q0jnTJNQTM64XWD6qOzufhJYpmsiGKbl0iLazGiBWflwkiAfqUh9KlzPIAJ8W9YdtIbAuZnQEV2oa1x6RNMYDKyTNb9NmdPOiIaUsg4Pfkd+XrlWqg7zGV6q6oJvWb0IZbe7YkTXsRGMstkeX5VFKnPaSkaZNHWuOQJJDAZWSZX1aNOhOS1T5qGY8ZoM7W+93Oo1J8ghcQKFv0OepPRjRl9mEtZRCEZkMQyWSG97vW5HF0QAl5qIkNb45InkMBkZJm89KZ6X+zzI5gSIbocpjxCV8ucYXbip+of6e7vQHRpGmf8pE1kOk1EMD2hdbzHIinZZ+NdTr7YSGGZbOPqgtuRP2Rq6rSYdaPfmkeUXWhrXPoE7+RPSgrLZFLY2OyOg5kyyby+0bFvft6PiPlDHNuWKpKDDEbtUZVl0Ssn90nbYPk61mFtDSJQjaQ5iCDbFr3p4m2Z7B5B1is7/HNkkjV+ZBATMFOebViU9s16X2yQgDHZ0tuOOfH1iEFb43KAM/lzSCFPtJQNmhohxrRWjilTy2TaGpcFWY5gCCHBKEPLZNoalw2MYHJIOUYw6knUs8+ElskmWatFpkriePeZxNcOyz2sRVY+UGBySCELDCGEZBumyAghhIQCBYYQQkgoUGAIIYSEAgWGEEJIKFBgCCGEhAIFhpACQA5T/u1XWbremHhaRnOCSpwcWybLUjK7nA6Xjs+HD4cplyFy8t6excKduJcny+TQUHNx0renVnOCGi56zvInxUOa93MmlslztnL+YmGhS1LW5M8yuVBZdfIz+MRCM27v7dFbSLGSVgRTufUZtD4yi7HJdWjddtM7AlFRzjpMvWJ6wMgIZhOuW+u5hxFMYuRM/h4M4lRNrzXzfuZEzEVRzsiXbpeD4l2m14t9v1EEURY4NAg2Y1w6YhoOi4qZUauigPG9pjG/vUkcewajJ4AO6X5pvkdGJ42TGFhos76X9bc9Z7UbFQSuyuoF9dOOyEZVNHBtC5NkM/jVd7H56ljnW/3mRUzUNIlztoKJE9NoaBe/U1om+P3e8hjKRVQijnHUNByT13EbFi9E0CT+9sqFUUzXdxh/R73H2D95dBFt5rm1/q7zHohh/2wHkOC+cW4TyHIyX49gTalEdWVK8GuXoWUyKVzyYZks6e4X4rIgBEN9dkA0nB0Oz/2K7Q1YPCodGKPokKmuoxNYiW6Lfbdoh/W9usQ+bO8xqvcqUzTjtzj9aozUjeHKabcZbsHuetGo2o3VQiUflskCKbztEdHo62OfmEfTAfu1jqJJnk9x3iq2d1h/p6HZvCbiOqgUmPy8uC4wrRq0W6a8PnZ3UsstcwiT4lI4nE73b1MPDpP23ya58TpW39yMu/TsL2oCC0xGlsmKWltJ/2dQb/XXkLyTB8tk+QS7LSoaI6sG2rhojETDVr875gUyc0o3UOKlEI24xt/2vYxS704nTk/EsU7ZG075O6pmcCpntbryYZksZLS5AbgwaJ1THBtR4h37WzIq0ke0/Z0YMiIx+1fGcebyCipq/BXWH5Kl/20PB92NUY/vP4hVC9IzhmmyYiaYwGRkmSyx7xOL6qOhyBQuObBM3lMnZMz0adGLlbpJn0htLAJKxtDFmJgZDW+wxjoj8mSZvLGmwvJxMRZbejJdLIOyFKgHAFPMjIcLL0Ff9f4S7jy0Wa+RYiSQwGRkmZyIWabPCptcWSbb0yl6ybAPZH7O56eVG6dMLcn0GDB9LlfRiyCPlsmyn8pxvsXiSMEFZWHW5/UyIh4V3cr02Mykp6Dfe6gKa95/T6+RYiSQwGRkmZyA2uZdqF2axRwdL3NGwVkm6yfajn4/6bTUtBzsEU/jrpz+zKKrr8WOTOcBTft70LAQS8XlhvxYJquozeynyhTVV1SBmYs2mTg9i/kk6b3xI6cwE23D8T2RWCoujh7cE8+lq+YH9boN7RkznKV7hoRH8E7+pKSwTK7bG9snlh14g8OUC4m8WCaP4/DzRse+/bP2Tv6U2NJzylrYTN2ZnD6MQSkiyr5XLs7BC0Z/UgXm7Y1kTsiTZbKMjFTHfuz4wWykTStksRxowrx7BJi8H+zpvTjLZNnZXyGOkuQBZv1TuLvuPaxO5Bmj+gcFftNyJG/QDyaHFPow5aK0TM7GJEo1nDn9iYGZUWyWyXJYcRsWrWHN6WEOe/cayi5Nye68fxj3n0wQwQhZUcPa5cjDYrtfy4wsRzCEFBuisdrflNvOfQdlaJksHgo6knTuy7lBv6s5h/sSiIsR2VFcigVGMDmkHCOY0C2T045gbJM7bRM780XxWCZnEMFYkzvtEzvdyIjucazmBMuSgAKTQwpZYAghJNvwIYEQQkgoUGAIIYSEAgWGEEJIKFBgCCGEhAIFhhBCSChQYEjeccxa9yr/IYffJttvot4XZFZ6YZDSMlkO8c1iLbJSRU7QvM0S/wVD+gIjzcRUOZjPoVJvMiyTY6VgvMrxS8My6z2Oz5NyZPzIPlVsUXrMlCWPv4aPds7jE5nOgXEg5/n4LddTOqw+dQ732v8Bd9brDSSvpCkw6Vsm1zZ/zXDDNN/DWmTED8oeoKsEZ2/TMjmr3HgO95+Yx8dfia/vRnJPWvd05dZWbMEUpq7pDV4s3XSKh6yuvHbK22KZ5AeP9ItKXfmoWKve5/q8e5sjDRZX/DA5ZgVouSQsgim/v3nsJLPYC5F74gHs9pVXEtYhc5yzOI8cI0Kx9tvOtXG+jCoFsYKTrnNnP2di8RfpeEVFcna/vqZWilJu08cPlNpz/S7H/SePKY5tpku9jv3LV3A/mnGHqbK8E1xgMrBMVusfiijGlkZr3erhFUNyhypnr90p0yDeetgwtbIMykSD0IlBy3dkQJXH99/oDPUZnxtNVARBNjZ2+19l11ssJLFMFgJgVIbWv0vaPttoOdgJHNP7HLbF5vmSFtPi0p4w39NlKxEjGurGSWt7InvsxIxjdsGPmZs0kJPlZOTxpZVzEzp9pupS2WerY1t2zV7H1lWqH03Sp0VyQmCBycQy+YG1lYAQGZw102NTQGOnh1kZyRnKv0Nji2aUSCxcNbYnw209LJoqh1Oh2N9nq3/lsFvOkO52WajSZv9bVHhZJoun+D1RIQ7eddrGj/TZfnMw22JVTt+eakxkj+1BzJfGFs0oV9J5zNquwcwJpw+/P4dRH/bZDrtm72Ovmhd3dE0Sx1CSE4IJTMaWycCyXZyW3sRUMsdLkiOuYnHJaGC6xUPBzEKs8ffrDGm3Ho53KnSlPYosjRUaySyTU2FPE4nFt0W1xp52HB7uEHGBP8bn5g0h27Mb1QuidTcb96VFcReZOA3fZETlq8BmNu2zxfdcsy5CgckzgQQmU8vkWx8uo5JiUoDI1If03xdPkDWLGLkIbNvfgrqaAJbJlvWwFCnx9G0z71JpD9gslYsqjRUiqSyTPelGvxBp2GyPg4zAk307slx+zKZ61DDw8oNMp9bUobu5Abg4gsUa8VARrUaFb8vkVGTJPrs2gjs359M8vyRbBBKYTC2Tl6/PYnnDY7GhyykslUn2MZ9cE3bq1oqnBNlvIhqRSGMnqqucaY/kGC6FhkhNYMTt7241QCKa2Z+9CEambGIpFKPhLZ7oyMsy2ejrUL71EtXPFP8kb0WXYr+0LXbiOoYbW8Sh7LH1a7/U1cyLKEX8DTSgszHiL5WaiizaZ9+LRMQ9l0DAzcgv0MADki7BO/mTksIyeelNjKmhyx77Sd6QDXV0ewMWz4lGS/5Dr4ki6kh7pGboxAQi7R2ImJ37Grl9xbJj7kX1ZXsEE0ufqTSP+T6rkYmNRpK+MhXaltns+B0/Mqg6uA3LZNmxHOBpPO94WyYP9YnfYZ4L2antiPqGMCIiFmuEmNg/nSCCcRzDcc5Oqc5x02a6bWHC/zmT/XXis00wUqBDF+cRjVb4TqUmJwv22YokgyeUiIn/ZqkPkCSHfjA5hH4wJJ5is0wuAh5/Db9tmccnB55LmCJTJngiys7IZpv4IssRDCEkGGVomRwm63+Kj9sjuP9nCcRFz/2huOQORjA5pDgjGJmiSpKjLwC74VIga5bJGaKe7r0vdkYW12Ee20TWIrt7idFgoUCBySFMkRFCygmmyAghhIQCBYYQQkgoUGAIIYSEAgWGEEJIKFBgCCGEhAIFhhQZtiq+JURKy+RSxVa9Oxv80Q9fxauvGsvPvvt5vbW0cfgGeZXZMUvkpCrDE3c95ETg9OdopS8waVgmSzfL2L7YwnL9pKwJxTI5BarB8eMBU0T0HMWXHnob/+npp/H0f34b2Pkl/JHelX/CezAK13L8O1jzVgS/603PITRNgUnPMjmuWObJKSyL/91kLTJSttAyOVt8vvZh4P3r+Hu9DjyMDa36ZbmTgeX4qpOfwScWmnF7b4/e4p+0JlpWbn3G8NWfXIfWbTe9LZBllLN3HaZeOWm5WtpRx1n7DkbOxUzJwoYTLT2QofGeRQwcEw+CZkVi37P05dNZL6pPd2Gy0ZytLY2hTNMpI4yPeZa4Z20bn5cWv4oldymP+GoC0qmx75jxuYbLAza/kUTbCpdkM/id58z8zeKFvFaNi5ioaRLnTJznE9NoaBfXLO68JcKrMoPteqW8F5zHWLngOtfy87bqz9b31rh/l3W91efgvDcSbfOi9UX87N8+ikv/+X/iwX/7JWy6+jd4+lv/Ve/0g+vcWOdT3lOicb08j6btYq84F6PoUPe5+7clwquCgXHe4Osedp4z578tE/WemlNx/2btfz/uWgk8r4deVcgSPF+PYM2LwR6Egj80ZWCZ7KQeW1yOlyTPyAq7ph2trN4bbQvknS+r+7YtGB4lozMVaGrXCRjRSNjtfwcuRNBhy/Mms/81/rF1IGJ5nxhWwAbaydHueLhnNxpEozstq0IXPEmq/qoS/DbLZLE4GrJokxJ04zzLaybtg5221YkZQp88nqrObPdecTVYnveC+3qMYn57ry31IxrpZHbMrnvBYQWtnDWj2GZLI0lvITjM65Iw9iL+59UKPCHEBf/j6YDiIhti++8Si6ORFee5XoiuOhcd6j6XKSlPOwQbyS2sE9zD2Ihq+z0s7oXQLMeTXQ87N17H6pubcfdxve6TwAKTiWWyncqtj6H2+jss1V9Q2OxoVVlz6e+idvhDPNmZT0fS4RI1deofgTIgs9n/GuXiY41hUvvf/Z3KrGzQ9dRl4j5WS3MDKmZOxT3dFSZelskmzsbWgXjKND13Vi6M+GuAA+FxL0gBd1wPbR1gNbTJ7JiFOCW1gnYfS1ooywjN36+THfxfeugKrog25eFa2cH/ebz4V6/iaIDMjrOhdzJz2hQcmx14FnDfw4YjrO0eDs1yPNX1sDOIVQvSZydYmiyYwGTBMtlARi+VmLvG6KWgWJrGGVtDf/j51OG/HbuLJY716SdA6YxpRDfWSBd3isYc4aIXR7ieEsPorKFZNgst2F0P3w1S3klmmSxz5urpX5+XXBtked0L0r3S5iWT6HrJlIy5L4gds0Q1ntFtRsTjbmiT0foi/r+NV/A3/+oADgzKDv4/wYutm/CgiAQ+uKLfk4KhPiN6Nn9b7kYq2u9h/UBm/7ckhaAALMdXvb+EOw9t1mv+CCQwmVomm6joZWkKU4lcMElJYk8NGIuZkunOyP5XIqMl9eSpnq7tDWOBk8oyWYq0PiejC6LhKxQXRpmj19/LWnTUIvP5adsxS7SrpYzc4hvaJGx6EBVLH0BpydiL+Mr/+I1KlW1auoS/H1Pv8IEhpOp7H5XmebkTGeseVlHbDCZtD3aFYjl+76EqrHn/Pb3mj0ACk6llsoGOXiZT9+GQ7GM+Xebu6cxIeTny8AnwtP+VHvC29IH6x2Yb+q44NmL02+xvwLyVxigGvCyT45GOo1lFOlMmS8F5IVNeIoKJ9ZElwNOO2Y8VtGjkT4vIbc9xtCWy3vbiygfiPnkCXzIzOIPvGGKTLur8ZJMUFtbqvFZjo4jaIolSnqFYjvuz5jbowT0RJ6yaH9TrNuRADBlZJZhjE7yTPykpLJMFtc27GL2UGXKcvurYN0N8uVhP4ynsf4VgDMpOzQPGftm5Gt9ZqfttqqRPvN5UFHhbJstIwDpXYlEdse6RPRkxhD57Cm74uM8BHXKQgNGxb/9+5gNLKjvm5FbQGtXYiibUZb2dFBW1XMGmf2lOtJQd/X+DK0J0/t1fvYjUUy7lCLLY75GpPdnhHyRFnAovC2sD+e9A/Btpj8QNUAnTctzX9ZCsfwp3172H1Yl8dlQ/m0D3udqhH0wOoR9MeHgN0Sx8aJkcj2wU27CYYCguyQ/SyO3O+4dx/8kEEYwSuV40LcRPa8hyBENIHlBptSLq3HdAy2Q3Kq1WNCMBSx85V+t3NedwXwJxMSLtxOIiYQSTQ4ozgpFPk0lGAuXTMlnmjPWIGj8T3gqZrFkm285JIhJNtCsUrAmBiSb6FTBeEykNsmMFnT9khP04VgecYGlCgckhTJERQsoJpsgIIYSEAgWGEEJIKFBgCCGEhAIFhhBCSChQYAghhIQCBYYkRpZ/KJTaVxI5/NYxQ7m0KCjLZPNcqyW466X8LR+nYU5FSo/0BSYNy2SJNBmL7f8aWrc6C2GSYsUoWZG7GmclRD4sk5MhKzknLaqY/FqvOnkSq3Yewu2A3iGk9EhTYNKzTJbl/pUTprn/5BTQ2BonQoTEYTZ6RVcKJhWlaJn8Hdz3F+dwj9UJyp6cWibHWyTL4piP4aarIGaYcKKlN8mtU3W9oQS2xl4zme2zxp3HTmz56oX9+AnteRsnMbDQZh2/kGeru/GcwS9/V1LbYtf1iKuo4KrAYL+W5rGta+tR+0tVBZCulrGZ6H6utUny+lWkHAj+0JSBZfLy9Vksb9hlpcWMysqzmKOrZf4RjU4y69RktsbJLWEFoqEKzfJVEu0wCl3K44vvXbG9M3C/QX5IYpksSWJhrWwLZP0ndU7Fua/pcFTnTW7/mz4pr7WN1Zfew52Gp7xN1UjJE1hgMrJMXnoTY6+MYPaRTrV/B97AiFf0Q3KIeBpOYZ2a1NY4FafDsnzVyKdz8+ndYdFb6KSyTPaysDZMqUatiMXwUHHb/Saz/80Jc/NYsy5CgSljgglMppbJamBAJ9ZNyn0jmFq7SwiNrY+GFC6OkUVBbY2NTmHzs/myfC04klkmS7xsi/fUCQmNOv11XEZR+bP/taEcO4XArNfrpOwIJDCZWibL6Kfy+hva/VIOCBAis1SLLRxJVuB0Z2RrXCiWrwVHKsvkpNhtifXiSIPlz/7XQgnoPFbd0Ouk7AgkMFmxTBZiYw1rrqpHXRVw68NkERHJJrKTNv6J1p91qqetsSKFJWwolq/Fjn/LZAfat77D75ygRPa/VopSRpdJ7BgSkuJam9RGcOemEBi9GsOMaP26aJJiJXgnf1KSWybPnRMRC2wR0N4tuHXWQ5xITklunZrC1ljjZQmb3PI1FXKEk3E8OXrJbfla3HhbJidHRidGx755rp3nJHbOjMVl/3usD6MzZopNXI/T4rrpXRLLrlmlMs33OSdcJrf/Nbj76GasmX49gcAYfXjiauo+JVKq0A8mh9APhsRTopbJ63+Kj78ewRovoyo5VLo9Emi4Oik+shzBEEKCUYqWyUI0v96MVQknj+roiuJSFjCCySGMYNzIxqZA7ZhzTNYskwsA+Vtu44ecYEkoMLmEAkMIKSeYIiOEEBIKFBhCCCGhQIEhhBASChQYQgghoUCBIYQQEgoUGJIYORGukCyTS5z8WCa7ipC6Ss8YZYW8y7lYM/7VEtxa2Q/yO+SsaoOcHNobtKoCSUb6ApMVy2RWUi4djMaqIC2TC10s82SZ3HKwx1mENMicI1WPDpg4qj9rMyXLK5lc6xvPYc1CMz7KudCXLmkKTAaWyY23rHL+YxcfwA6HQBFSbuTPMnljTQVWLp/RRUjjMczFPGbbR6tR4bATKA1W/+Vh3F/zLG4/rjeQjMihZbKMbjpRd20EY5afDC2TC4lCtUxW1Z3tHjL2Gf7yidXL/heuz1nIUveF8cSdbAa/+3pIB0lVsFL+5sZFTNQ0ieshzuWJaTS0i9/puF6pMK5nw+UE9tKO8534XKnvVj+d8O95fm9fuO4zgdOO2VX9wbwX3PeIhf37e9/DDkRE+duWeXxy4LkM7BSIJPhDUwaWyRJnaf4F3FyqxDpXGo3kAdFoFaZlsmhQRMMxbx3XqOLrKy9/+jD2yc/I3yIbE/33Cyadk8wyWaWgbNdDLI5GOtqE6tPSRroCTe3SVlmcl6oG7E5Z/l7XAhs2GlqzOrWjr8U8bwl8e0y7ByUg0tJZ98FY1yPBfRRt91+W32kFHW+T3d2/DZPmsfW9oNKyPq51snvYwS9/ifvWNeIujdIyJrDApG+ZvIC5a8uo3RZLiVVubcUWiksBIJ7sCtQyueVgG6KiwRixGtch9Enf/XzbAWeFVJbJUWzz6tOynZOVCyMBBFOcP7OBFf+GZXRgNLj+IkrjYUIbztkacuNhwriPHN9HWQNUoKHZx9USotrmsIKOZ6jPfo8OYVLoSaTW353g/x5O06eHxBFMYDK0TF5+d8zhB/ME3sHU0rKIYoz9pICRKQj9tGo9wfpGpiZinw1smWyZlZUYySyT5RO5evrX56yIRvRZxnRhINOD5n0klkSpWU9838ODWCWauHuRHr1O0iWQwGRqmeweBDD2LrCu6haWKTAFjpGmyptlck2do3FtqY3oV0VOKstk8fRvnu/RhSb0FonIOCOKFtRlyxFdCkS7jLT1fSTPiyuF5k2Qe7gH98R3XjXPatCZEkhgsmKZbCFTabuAs3IAAMkVxWaZbKTTmtBpfd9udIq/PSOe8K3n5FT2vzOL4hh++idyjf9UzNWFQJKcJ3TaaXunuEqa/Z1oqprBKfdAgkQoa+dYWlAOFoiPUFawaIqKiGbi9qe41snvYZNUqUvil+Cd/ElJbpksU2zWPjV6jHbJhULBWibLVJH4LhHzbwe0/1WIYwzKgQUHzGOEMykwON6WybJxNc+jXFTHue8RYplh/W2VykxsmezF+JF9IjKI6M+IRRmL+R1UYfSvmfdZb80pZ5QhruMpOajBvI57FjHhvtie19rfPax4/HHcvnkRq2/odZI29IPJIfSDIfGUqGVy0dKDO72HcG+c1yMbZDmCIYQEoxQtk4uXu189hI8XXqG4ZAlGMDmEEYwb16Q5N7RMDo7sP0sySs85aTG3eE3INSiAya+yFtlXgPs4wTJrUGByCAWGEFJOMEVGCCEkFCgwOYTRCyGknKDAEEIICQUKDCGEkFCgwBBCCAkFCkyuqfwefvGF76FVrxJCSKmyZt26dS/q18GQZmL/8l/gM4/8E9x4bxa/05stZFmYvbvx+2tXMG2vRWZub/x/xbIZ965fwsJHel8OqK6uxs2bN/VaHvjd61j30LfxjX/2T/GX/zihNxJCSOmRZgTjZZlsUo8dTz6AuesuSzIpSmL7lK6oPHYRTkvlMuEn53+A81Vd+DENjQghJUxaAqOMwjCFqWt6g4va5l2ovf4Opj7UGzTSrKxSbDeLXy6/+w7mhLxsSFjqv5R5HYcuXcHmRxOnyoxig/5dAAkhpBAJLjCpLJOlKdmGOZw/ZzpZmtSgci0wd83cLj36hRCJVzG/mDLixq/wXuWjaDPtPQkhpMQILDDJLZOFaGyrxVwKj5faZlmuvxN110YwdnFZCE8ZCgyu4IPlCjyYQGBkyXO/FraEEFKoBBOYFJbJKnX24RtJPV5qn/yaeM+IdrRcENFLJZY/THy80uZ1XBMi/XDVU3qdEEJKi0DFLmXksWODXnExd3YEN7d1YkuV3uBgGVMn/xrLjeLzeAMjVvpMpsk6sW4yd8ZjhVNw8ikc/sK38eClvfhjGhsRQkqQzKopyyHH225i7GTi/pjKrc+gde07MUGR739SptC0oKh14PwrubNNLhyBeQE//oMv4oPXvoxDrpMnO/l7pS3wia6YcyMhhBQZaQ5TTpPZk8rHX6bJlG1yjsWloFj/WWxevoRTCZR5fG5e/dfT354QQooA+sHkhRTpMW0aNc8IhhBSxOQ2giGKb+z4NnYsDScQlxYcenkYwxQXQkgJwAgm18haZDuBH772XYzpTYQQUopQYAghhIQCU2SEEEJCoewiGEIIIbmBEQwhhJBQoMAQQggJAeD/ArpkyoRyfTjTAAAAAElFTkSuQmCC;" vertex="1" parent="1">
          <mxGeometry x="466.25" y="680" width="289.63" height="230" as="geometry" />
        </mxCell>
      </root>
    </mxGraphModel>
  </diagram>
</mxfile>
